<?xml version="1.0" standalone="no"?>
<!DOCTYPE svg PUBLIC "-//W3C//DTD SVG 20010904//EN"
 "http://www.w3.org/TR/2001/REC-SVG-20010904/DTD/svg10.dtd">
<svg version="1.0" xmlns="http://www.w3.org/2000/svg"
 width="424.000000pt" height="536.000000pt" viewBox="0 0 424.000000 536.000000"
 preserveAspectRatio="xMidYMid meet">

<g transform="translate(0.000000,536.000000) scale(0.100000,-0.100000)"
fill="#000000" stroke="none">
<path d="M1585 5220 c-18 -29 -18 -160 0 -233 14 -59 58 -167 68 -167 1 0 3
24 3 53 1 28 3 86 5 127 3 83 -9 135 -44 194 -17 28 -26 35 -32 26z"/>
<path d="M1776 4969 c-39 -80 -60 -168 -50 -211 6 -31 -11 -39 -20 -10 -4 9
-16 28 -27 42 -12 14 -5 -5 15 -42 20 -36 36 -71 36 -76 0 -5 -17 -1 -37 10
-33 17 -51 19 -143 14 -58 -3 -118 -9 -135 -14 l-29 -8 44 -22 c99 -47 198
-49 282 -6 28 14 31 14 43 -3 7 -10 13 -22 14 -28 1 -5 13 -29 27 -52 14 -24
23 -43 20 -43 -3 0 -31 7 -63 16 -57 15 -293 17 -293 3 0 -4 9 -18 21 -33 62
-79 192 -87 339 -22 12 5 28 -17 68 -92 28 -55 52 -101 52 -104 0 -3 -21 6
-47 18 -56 28 -179 46 -278 42 l-70 -3 50 -37 c56 -43 156 -78 219 -78 24 0
65 7 92 15 43 13 49 13 57 -1 7 -12 12 -13 23 -3 8 7 11 15 6 18 -9 5 -102
168 -102 177 0 2 9 4 20 4 25 0 25 7 3 34 -14 17 -12 16 9 -2 l26 -24 45 27
c51 29 113 93 127 131 12 31 13 111 1 118 -14 9 -197 -176 -217 -221 -10 -23
-21 -43 -24 -43 -3 0 -18 24 -34 53 -16 28 -36 60 -44 70 -9 10 -17 24 -18 31
-1 7 -14 32 -29 54 l-28 42 37 53 c44 64 66 131 66 201 0 86 -13 87 -54 5z"/>
<path d="M1330 4985 c0 -23 56 -108 94 -143 57 -52 119 -80 194 -87 53 -5 56
-4 37 11 -11 8 -29 20 -40 26 l-20 11 20 -24 c30 -35 -98 83 -135 124 -17 20
-46 45 -63 55 -33 20 -87 37 -87 27z"/>
<path d="M1912 4830 c-69 -93 -121 -227 -94 -244 15 -9 81 70 109 130 18 40
23 66 21 106 l-3 53 -33 -45z"/>
<path d="M3352 4777 c-19 -21 -20 -25 -7 -40 8 -9 10 -12 3 -7 -7 6 -15 10
-20 10 -13 0 -37 -56 -49 -112 -9 -44 -40 -120 -55 -137 -2 -2 -31 22 -64 53
-68 63 -85 69 -69 29 17 -44 55 -89 88 -103 30 -12 30 -13 15 -41 l-15 -29
-60 65 c-34 36 -66 65 -71 65 -7 0 -8 -16 -5 -41 6 -46 42 -90 88 -109 16 -7
29 -15 29 -18 0 -15 -24 -82 -29 -82 -4 0 -14 12 -23 28 -9 15 -35 45 -57 67
-39 38 -41 38 -41 15 0 -38 44 -124 75 -147 23 -16 27 -25 21 -46 -8 -35 -18
-34 -34 2 -16 36 -118 152 -126 144 -15 -15 -4 -90 17 -125 22 -36 91 -98 109
-98 9 0 2 -54 -10 -74 -3 -5 -13 7 -23 26 -21 41 -103 134 -131 149 -19 10
-20 9 -13 -33 11 -65 39 -112 98 -163 l54 -46 -16 -75 c-15 -76 -25 -89 -36
-54 -11 36 -83 117 -144 165 -60 46 -61 46 -61 20 0 -69 56 -148 146 -206 59
-38 65 -46 62 -71 -5 -34 19 -48 27 -15 89 404 108 477 175 650 l41 105 44 7
c44 6 124 56 132 82 9 25 -102 -21 -144 -60 -13 -11 -23 -17 -23 -13 0 14 44
92 76 134 29 38 63 136 52 148 -3 2 -14 -6 -26 -19z"/>
<path d="M3176 4738 c-17 -66 3 -158 42 -190 14 -12 14 -10 7 17 -4 17 -10 66
-14 109 -6 79 -23 109 -35 64z"/>
<path d="M2154 4514 c-37 -38 -80 -86 -96 -108 l-29 -40 21 -20 21 -21 73 75
c65 67 74 80 79 124 4 27 5 51 3 54 -3 2 -35 -27 -72 -64z"/>
<path d="M2360 4464 c0 -7 -38 -44 -84 -83 -46 -39 -94 -85 -106 -102 l-23
-31 44 -46 44 -47 -47 44 -46 43 -26 -38 c-14 -22 -28 -54 -32 -72 -4 -17 -9
-32 -13 -32 -7 0 -74 131 -69 135 2 1 22 12 46 25 43 24 50 34 31 46 -6 3 -25
-7 -42 -22 l-32 -29 29 32 c24 27 27 35 16 48 -7 8 -16 15 -20 15 -12 0 -32
-56 -28 -77 2 -11 -3 -28 -11 -37 -12 -15 -4 -38 76 -199 50 -100 89 -184 87
-186 -2 -2 -12 3 -21 11 -33 29 -99 56 -161 68 -67 12 -302 12 -321 0 -16 -9
50 -62 116 -93 40 -18 65 -22 158 -22 61 0 139 4 175 9 l66 9 52 -112 c58
-124 63 -144 30 -114 -36 33 -105 63 -177 79 -74 16 -342 20 -368 6 -13 -8 -7
-16 36 -50 84 -66 147 -86 276 -86 61 0 146 4 190 8 l81 9 46 -109 c25 -60 44
-111 42 -113 -2 -2 -12 3 -22 12 -30 27 -108 57 -188 72 -76 15 -282 19 -338
6 l-29 -6 38 -34 c93 -82 231 -117 383 -97 42 5 99 10 127 10 l49 1 28 -65
c15 -36 32 -78 38 -94 9 -27 12 -28 26 -15 14 14 12 25 -21 105 -20 49 -45
107 -54 129 -10 22 -36 78 -57 125 -64 143 -133 288 -210 441 -40 81 -70 149
-67 153 4 3 15 6 25 6 66 0 220 117 258 195 23 48 29 131 11 162 -6 10 -11 13
-11 7z m-680 -544 c0 -5 -5 -10 -11 -10 -5 0 -7 5 -4 10 3 6 8 10 11 10 2 0 4
-4 4 -10z"/>
<path d="M3328 4456 c-25 -7 -59 -21 -75 -32 l-28 -19 30 -3 c43 -5 97 14 125
43 27 29 19 30 -52 11z"/>
<path d="M2136 4379 c-45 -45 -56 -63 -48 -71 9 -9 18 -6 38 13 27 25 79 107
73 114 -3 2 -31 -23 -63 -56z"/>
<path d="M3223 4329 c-39 -11 -42 -22 -9 -37 66 -30 144 -23 180 17 16 17 15
19 -21 25 -51 8 -111 6 -150 -5z"/>
<path d="M2453 4242 c-78 -62 -190 -189 -219 -248 -14 -30 -29 -76 -32 -102
l-5 -47 24 21 c13 12 51 39 84 61 119 80 191 185 202 298 3 30 3 55 0 55 -3 0
-27 -17 -54 -38z m-63 -239 c0 -8 -9 0 -50 45 l-45 47 48 -45 c26 -24 47 -45
47 -47z"/>
<path d="M3219 4221 c-14 -5 -36 -14 -49 -21 -21 -11 -22 -13 -6 -22 45 -25
158 -6 211 36 19 14 15 15 -55 15 -41 0 -87 -4 -101 -8z"/>
<path d="M1618 4171 l-67 -6 20 -33 c29 -45 97 -82 161 -89 l53 -5 58 60 c35
35 55 62 48 66 -16 10 -196 15 -273 7z"/>
<path d="M1855 4098 l-60 -61 55 7 c61 8 162 46 163 61 0 11 -46 40 -78 48
-15 4 -35 -10 -80 -55z"/>
<path d="M3210 4114 c-52 -10 -91 -26 -87 -37 7 -21 81 -38 150 -35 57 3 71 8
94 31 15 14 25 28 22 31 -7 7 -151 15 -179 10z"/>
<path d="M2567 4015 c-48 -42 -87 -82 -87 -88 0 -7 6 -19 13 -27 10 -11 8 -11
-7 0 -17 13 -22 11 -58 -30 -53 -61 -97 -154 -105 -220 l-6 -54 44 35 c24 19
63 47 86 63 57 38 146 133 172 184 37 72 65 212 43 212 -4 0 -47 -34 -95 -75z"/>
<path d="M3184 4001 c-17 -4 -45 -16 -63 -27 l-32 -19 63 -12 c79 -15 135 -16
143 -3 4 6 10 8 15 5 10 -6 85 29 94 44 12 19 -153 28 -220 12z m161 -31 c-10
-11 -23 -20 -28 -20 -6 0 0 11 13 25 27 29 42 25 15 -5z"/>
<path d="M2753 3863 c5 -27 0 -35 -63 -86 -139 -113 -244 -268 -257 -377 l-6
-55 29 26 c16 14 58 46 94 71 85 60 193 171 195 200 4 40 29 128 37 128 5 0 8
-3 8 -7 0 -5 8 -18 18 -31 18 -23 18 -23 50 -5 27 15 35 16 53 5 l22 -14 -22
30 c-24 34 -114 118 -144 134 -18 9 -19 8 -14 -19z"/>
<path d="M3205 3853 c-62 -14 -115 -37 -135 -58 l-23 -25 59 -2 c136 -4 197
10 251 58 l38 33 -85 -1 c-47 0 -94 -2 -105 -5z"/>
<path d="M433 3695 c9 -57 52 -140 98 -190 73 -79 80 -77 55 13 -25 86 -62
149 -111 187 -44 33 -49 32 -42 -10z"/>
<path d="M2868 3709 c-10 -5 -18 -13 -18 -17 0 -4 27 -25 60 -47 33 -22 59
-44 57 -50 -2 -5 2 -23 9 -40 13 -29 13 -29 14 -5 1 46 12 53 76 46 56 -7 58
-7 37 9 -12 8 -26 22 -31 31 -7 13 -12 12 -36 -7 -34 -26 -40 -21 -28 25 8 27
7 38 -3 46 -11 9 -15 4 -21 -24 -8 -43 -19 -46 -27 -7 -3 15 -14 31 -24 34
-10 2 -25 7 -33 11 -8 3 -23 1 -32 -5z"/>
<path d="M3132 3670 c-18 -4 -35 -9 -37 -11 -2 -2 10 -19 27 -38 28 -31 33
-33 74 -27 51 7 111 35 138 65 l19 21 -94 -1 c-52 -1 -109 -5 -127 -9z"/>
<path d="M675 3615 c-10 -66 -1 -165 20 -204 15 -30 15 -33 1 -28 -34 13 -13
-4 89 -73 58 -40 118 -84 135 -100 16 -15 35 -30 42 -33 18 -7 264 -213 370
-310 49 -43 85 -84 81 -90 -3 -6 -1 -7 5 -3 12 7 223 -201 409 -402 110 -119
135 -154 94 -132 -37 20 -165 12 -253 -16 -95 -29 -228 -90 -228 -104 0 -14
98 -40 149 -40 85 0 180 36 298 110 26 16 54 30 63 30 14 0 169 -166 178 -191
3 -6 -7 -7 -25 -2 -47 13 -134 7 -218 -16 -89 -25 -245 -94 -245 -110 0 -19
76 -36 155 -35 93 1 152 20 265 89 41 24 80 45 86 45 6 0 46 -41 89 -90 l77
-90 -54 6 c-88 10 -201 -18 -351 -88 -92 -44 -94 -49 -23 -69 107 -29 244 -1
363 76 37 25 73 45 79 45 11 0 214 -232 214 -244 0 -3 -15 1 -33 9 -86 36
-292 38 -457 4 -85 -17 -89 -23 -39 -52 132 -75 324 -81 487 -15 63 25 75 19
151 -79 39 -50 71 -94 71 -97 0 -4 -12 0 -27 7 -48 24 -129 39 -217 39 l-85 0
-55 -56 c-30 -31 -58 -56 -62 -56 -5 0 16 25 46 55 62 63 62 63 -73 40 -135
-24 -138 -26 -78 -58 124 -68 276 -80 431 -34 158 46 134 56 229 -88 184 -277
301 -553 365 -860 20 -94 23 -100 46 -100 21 0 26 6 31 38 3 21 11 43 18 50 7
7 11 66 11 180 0 150 -2 168 -15 157 -11 -9 -15 -9 -15 -1 0 6 6 14 14 17 10
4 16 34 21 104 7 99 7 99 38 109 16 6 40 11 52 11 37 0 135 38 177 69 40 30
92 91 83 99 -9 9 -102 -20 -181 -58 -50 -23 -98 -54 -123 -80 l-41 -42 6 93
c7 105 13 114 77 124 69 11 160 44 192 69 l30 25 -27 27 -26 27 -75 -36 c-43
-20 -93 -53 -116 -77 l-41 -42 0 33 c1 47 19 181 25 188 3 3 33 4 65 3 33 -1
60 1 60 6 0 4 -13 21 -29 36 l-28 27 -32 -27 c-18 -14 -34 -25 -36 -23 -7 8
17 174 27 187 7 7 36 12 77 12 81 0 144 20 194 61 52 43 48 53 -21 46 -83 -9
-185 -43 -217 -72 -15 -15 -29 -25 -30 -23 -2 2 1 39 7 82 13 90 20 96 117 96
90 0 169 35 209 92 15 21 15 21 -47 14 -93 -11 -187 -43 -226 -77 -19 -17 -35
-29 -35 -26 0 33 116 553 134 604 4 8 16 7 48 -4 27 -9 66 -13 106 -11 55 4
66 8 95 37 l32 33 -116 -4 c-80 -2 -121 -7 -133 -17 -23 -20 -26 -12 -13 36
l11 42 62 -6 c55 -5 70 -2 120 22 39 19 52 30 43 35 -22 11 -158 -7 -186 -25
-14 -9 -27 -15 -29 -12 -2 2 3 27 12 56 12 43 18 51 32 45 9 -4 39 -12 65 -18
42 -9 53 -8 85 9 61 34 53 45 -32 45 -41 0 -87 -5 -102 -10 -26 -10 -26 -10
-21 20 10 47 0 35 -18 -22 -9 -29 -19 -60 -21 -68 -4 -12 -7 -11 -16 5 -20 37
-91 126 -108 135 -16 9 -17 6 -9 -32 9 -39 16 -55 38 -88 8 -12 13 -12 30 4
12 11 21 14 21 8 0 -6 -8 -15 -17 -21 -17 -9 -17 -11 2 -25 11 -8 26 -16 33
-16 15 0 14 -14 -2 -59 l-12 -35 -23 47 c-24 50 -115 157 -133 157 -18 0 -3
-96 19 -124 l20 -25 23 24 c13 14 26 23 28 20 3 -3 -5 -16 -17 -29 l-22 -24
27 -21 c15 -12 38 -24 51 -27 14 -4 22 -12 19 -20 -3 -7 -8 -29 -12 -48 -3
-20 -9 -36 -13 -36 -3 0 -14 19 -24 41 -11 22 -46 68 -80 102 -58 59 -61 61
-64 36 -2 -14 1 -38 7 -54 l11 -28 24 23 c31 29 33 15 3 -18 l-23 -23 45 -43
c25 -23 56 -49 69 -58 l24 -17 -17 -63 c-9 -35 -19 -69 -22 -77 -3 -9 -12 1
-25 26 -11 22 -30 50 -43 62 -20 19 -22 29 -18 74 l5 52 -27 -24 c-28 -26 -40
-24 -93 15 -22 16 -23 15 -23 -3 0 -27 10 -35 27 -22 9 8 13 8 13 1 0 -6 -7
-15 -16 -20 -13 -7 -14 -14 -6 -27 8 -15 -2 -32 -55 -94 -36 -42 -68 -82 -71
-90 -3 -7 -14 -23 -26 -36 -34 -37 -87 -152 -98 -215 -6 -33 -14 -57 -18 -55
-4 2 -12 29 -19 60 -7 30 -17 55 -22 55 -5 0 -8 8 -7 18 3 41 -2 55 -15 43
-21 -16 -29 0 -11 20 9 10 13 23 9 29 -11 17 -47 -19 -40 -41 3 -10 -1 -34
-10 -55 -16 -40 -7 -66 15 -39 13 16 40 21 40 7 0 -5 -14 -21 -31 -37 l-30
-30 -32 38 c-18 21 -49 48 -70 60 -38 22 -39 23 -43 90 l-4 67 39 0 c53 0 99
-18 106 -42 7 -18 8 -19 26 -2 10 9 19 25 19 35 0 10 40 58 89 107 157 156
211 262 218 427 l4 100 -56 -59 c-121 -130 -231 -321 -255 -444 -7 -35 -16
-60 -20 -55 -17 20 -49 166 -53 246 l-5 88 72 53 c39 30 80 64 91 76 11 12 45
35 75 50 52 26 140 107 140 129 0 8 -73 -3 -92 -15 -10 -7 -10 0 3 71 9 48 18
66 49 96 33 32 67 79 58 79 -2 0 -36 -9 -76 -20 -108 -30 -194 -72 -247 -121
l-46 -43 7 55 c6 43 16 66 50 109 l44 56 75 11 c80 11 155 48 181 88 13 21 13
21 -69 13 -45 -4 -97 -12 -115 -17 l-32 -10 5 37 c3 20 7 53 9 72 3 34 5 35
55 42 74 11 159 58 182 100 10 19 9 19 -48 13 -88 -10 -173 -34 -220 -61 -23
-13 -44 -24 -46 -24 -3 0 -1 15 3 34 7 32 6 34 -12 23 -17 -11 -21 -19 -31
-72 -3 -18 -5 -18 -11 -3 -9 21 -226 238 -238 238 -15 0 -8 -37 17 -85 l26
-48 -22 -23 c-12 -13 -26 -21 -30 -18 -5 3 -9 -3 -9 -14 0 -10 -14 -44 -31
-75 -19 -36 -32 -78 -36 -114 l-6 -58 30 28 c33 30 43 27 43 -13 0 -15 16 -59
35 -98 19 -38 33 -76 30 -83 -26 -76 -24 -73 -45 -54 -10 9 -36 61 -56 114
-20 53 -48 122 -62 154 -23 51 -27 56 -41 43 -13 -13 -13 -20 2 -56 8 -22 14
-40 12 -40 -2 0 -23 13 -47 29 -58 39 -120 58 -230 72 -89 11 -284 7 -297 -7
-10 -10 68 -72 125 -99 90 -43 184 -52 325 -31 88 13 124 15 132 7 17 -17 47
-103 47 -136 1 -27 11 -60 35 -119 8 -19 7 -19 -21 1 -49 35 -144 61 -264 73
l-113 12 -56 -56 -56 -56 23 -22 23 -23 -7 29 c-6 26 -5 28 12 21 114 -47 120
-48 224 -49 58 0 143 3 190 8 l85 9 43 -130 c23 -71 42 -132 42 -136 0 -5 -15
4 -34 18 -52 40 -139 65 -264 78 -99 10 -115 14 -122 31 -7 20 -7 20 -18 0
-10 -18 -1 -30 71 -102 95 -95 94 -94 268 -65 59 10 103 13 108 7 17 -18 116
-343 107 -351 -1 -1 -23 17 -49 40 -43 41 -122 86 -210 121 -20 8 -39 21 -41
28 -2 7 -7 22 -12 33 -9 24 -11 32 -13 45 0 6 -6 10 -12 10 -8 0 -7 -5 1 -15
11 -13 10 -14 -2 -10 -9 4 -19 -4 -26 -20 -6 -14 -17 -25 -23 -25 -12 0 -132
30 -137 34 -1 2 3 26 9 55 l11 51 41 -6 42 -6 -75 76 -74 76 -56 -7 c-30 -3
-57 -8 -60 -10 -3 -3 12 -20 33 -38 l37 -33 -32 -93 c-25 -75 -32 -111 -32
-176 -1 -46 -3 -83 -6 -82 -10 1 -155 171 -158 185 -2 8 15 44 38 79 57 87 92
177 97 250 5 54 3 62 -20 84 -25 23 -26 23 -51 5 -50 -37 -114 -254 -101 -341
3 -24 4 -43 2 -43 -10 0 -172 172 -175 185 -2 8 10 34 26 57 44 65 80 141 97
205 23 89 20 114 -20 153 -19 18 -36 32 -39 29 -13 -14 -48 -96 -72 -169 -21
-63 -28 -105 -28 -162 -1 -43 -1 -78 -1 -78 -1 0 -33 31 -72 70 l-71 69 46 73
c69 111 95 196 89 288 -2 41 -11 91 -19 110 l-15 35 -46 -95 c-55 -113 -89
-231 -90 -312 0 -32 -4 -57 -8 -56 -4 2 -37 31 -73 66 l-66 64 31 44 c52 76
82 152 87 223 4 67 -11 151 -28 151 -12 0 -72 -119 -95 -188 -9 -30 -22 -85
-29 -123 l-11 -69 -60 54 -59 53 37 44 c86 99 113 231 65 309 l-21 35 -49
-100 c-26 -55 -55 -131 -65 -170 -9 -38 -17 -72 -19 -73 -1 -2 -18 9 -38 24
l-35 28 20 27 c50 71 68 224 30 270 l-18 23 -7 -22 c-4 -12 -5 -30 -2 -40 4
-12 -1 -26 -14 -37 -23 -21 -50 -103 -50 -152 l0 -34 -47 33 c-26 18 -52 36
-57 40 -6 4 -3 15 8 27 16 17 17 23 6 36 -7 8 -14 30 -16 48 -3 27 2 39 30 66
22 21 41 31 50 28 11 -5 16 0 16 14 0 23 -29 89 -39 89 -13 -1 -91 -179 -97
-223 -4 -26 -9 -47 -11 -47 -2 0 -21 12 -41 27 -20 15 -38 28 -40 29 -2 1 4
23 12 48 21 63 20 152 -3 195 l-18 34 -13 -54 c-8 -30 -14 -87 -14 -126 -1
-40 -2 -73 -3 -73 -1 0 -23 12 -48 27 -31 19 -43 33 -39 43 25 62 11 198 -26
255 l-18 28 -7 -48z m2184 -386 c32 -19 33 -22 26 -66 -8 -54 -14 -73 -25 -73
-4 0 -27 25 -50 56 l-42 56 23 24 c27 29 26 29 68 3z m141 -16 c-1 -14 -80
-65 -80 -51 1 43 13 58 46 58 19 0 34 -3 34 -7z m-207 -144 c15 -7 27 -15 27
-18 -2 -17 -61 -74 -68 -66 -5 6 -30 35 -56 67 l-47 56 22 16 c21 14 25 13 59
-14 20 -16 48 -34 63 -41z m-1083 26 c13 -14 21 -25 18 -25 -2 0 -15 11 -28
25 -13 14 -21 25 -18 25 2 0 15 -11 28 -25z m690 -60 c-19 -19 -38 -35 -44
-35 -5 0 5 16 24 35 19 19 38 35 44 35 5 0 -5 -16 -24 -35z m404 -244 c16 -17
17 -31 11 -105 -7 -86 -17 -107 -29 -62 -3 13 -22 48 -42 77 l-36 54 33 27
c40 33 41 33 63 9z m152 -63 c-25 -29 -58 -72 -73 -95 -33 -50 -48 -55 -39
-12 3 17 6 48 6 68 0 20 4 42 9 50 7 11 90 36 135 40 5 1 -12 -23 -38 -51z
m-191 -149 c30 -27 35 -37 34 -73 -1 -36 -15 -109 -18 -96 -1 3 -17 49 -35
103 -19 53 -30 97 -26 97 5 0 25 -14 45 -31z m-960 -139 c-3 -5 -11 -10 -16
-10 -6 0 -7 5 -4 10 3 6 11 10 16 10 6 0 7 -4 4 -10z m519 -268 c23 -22 50
-43 60 -49 16 -9 16 -15 5 -71 l-13 -61 -39 -3 -40 -3 37 -48 c20 -26 39 -62
43 -80 7 -38 12 -43 -106 93 l-91 104 19 31 c50 83 76 124 80 125 2 0 23 -17
45 -38z m1079 -98 c23 -15 44 -28 46 -30 6 -5 -22 -134 -30 -134 -4 0 -9 10
-13 23 -3 13 -21 44 -41 70 -30 39 -34 50 -25 71 5 14 12 26 15 26 3 0 24 -12
48 -26z m-830 -35 c38 -10 39 -10 32 -52 -4 -23 -10 -45 -14 -49 -8 -9 -96 16
-96 28 0 15 29 84 35 84 3 0 22 -5 43 -11z m837 -179 c0 -20 -18 -114 -26
-139 -3 -9 -13 1 -25 27 -20 40 -53 74 -113 118 l-29 21 33 40 33 40 64 -44
c39 -28 63 -52 63 -63z m-942 -43 c20 -13 51 -29 68 -36 29 -12 32 -16 38 -79
3 -37 9 -80 13 -97 5 -23 -14 -6 -90 83 -71 83 -94 117 -90 132 7 26 15 25 61
-3z m382 -74 c0 -21 -12 -15 -62 31 -35 32 -44 46 -35 55 8 8 22 1 54 -31 24
-23 43 -48 43 -55z m460 -18 c54 -27 70 -40 66 -53 -3 -9 -10 -44 -15 -76 -6
-33 -13 -61 -15 -63 -2 -3 -12 12 -21 32 -21 43 -98 113 -166 150 -42 22 -49
24 -49 10 0 -58 85 -150 175 -190 48 -21 55 -27 55 -52 0 -16 6 -35 13 -42 10
-10 9 -11 -5 -6 -15 6 -18 1 -18 -29 0 -20 -4 -36 -10 -36 -5 0 -10 6 -10 14
0 22 -83 108 -149 154 -70 50 -77 42 -37 -43 26 -56 63 -92 142 -137 l53 -29
-6 -52 c-3 -29 -8 -68 -12 -87 l-7 -35 -33 61 c-18 34 -62 92 -97 130 l-65 69
5 -54 c8 -78 41 -137 118 -213 l69 -68 -8 -82 -9 -83 -26 50 c-14 28 -45 71
-68 97 -40 46 -43 53 -90 255 -27 114 -59 245 -71 290 -26 97 -29 89 81 178
l65 52 37 -38 c21 -21 69 -55 108 -74z m-552 15 c12 -11 27 -20 35 -20 24 0
25 -10 11 -63 -34 -125 -37 -235 -9 -322 4 -14 0 -12 -17 9 -167 208 -157 192
-146 237 8 29 8 43 -1 52 -21 21 -12 60 21 94 37 38 74 43 106 13z m251 -307
c29 -120 55 -229 59 -243 5 -23 4 -24 -13 -10 -17 14 -18 13 -11 -30 4 -25 20
-68 36 -97 23 -40 37 -91 61 -218 17 -91 29 -170 27 -176 -2 -6 -19 27 -37 73
-55 136 -135 286 -231 432 -50 75 -90 144 -90 152 0 8 25 62 55 122 30 59 61
131 67 160 7 28 15 52 18 52 3 0 30 -98 59 -217z m257 -691 c-3 -76 -6 -156
-6 -180 0 -26 -4 -41 -10 -37 -5 3 -10 17 -10 31 0 14 -4 22 -10 19 -5 -3 -10
-2 -10 4 0 5 4 11 9 13 6 2 -3 70 -19 158 -39 206 -40 198 16 160 l45 -32 -5
-136z"/>
<path d="M2657 1722 c-25 -26 -34 -77 -16 -88 5 -3 14 8 20 23 30 74 31 75 68
68 29 -6 33 -4 23 8 -20 24 -67 18 -95 -11z"/>
<path d="M2742 3587 c-12 -13 -22 -28 -22 -34 0 -11 47 -55 78 -72 15 -9 13
-13 -15 -43 l-32 -33 49 -51 49 -52 21 42 c11 23 20 50 20 60 0 13 5 17 20 13
28 -7 57 21 65 63 6 35 6 35 -9 10 -8 -14 -21 -36 -27 -50 -10 -21 -13 -22
-16 -7 -3 11 -14 17 -32 17 -42 0 -76 42 -74 90 2 30 -3 43 -20 55 -28 19 -30
19 -55 -8z"/>
<path d="M3228 3530 c-88 -11 -97 -14 -142 -66 l-39 -44 40 0 c74 0 177 51
203 100 6 11 9 19 8 19 -2 -1 -33 -5 -70 -9z"/>
<path d="M310 3441 c0 -17 73 -70 119 -86 24 -8 67 -15 93 -15 47 0 143 19
135 26 -2 2 -37 10 -78 18 -41 8 -99 26 -129 40 -54 25 -140 36 -140 17z"/>
<path d="M1018 3363 c-28 -30 -34 -76 -12 -94 22 -18 35 -1 28 37 -5 27 -3 35
12 41 22 8 35 24 28 35 -10 15 -30 8 -56 -19z"/>
<path d="M1135 3329 c-4 -6 -5 -12 -2 -15 2 -3 7 2 10 11 7 17 1 20 -8 4z"/>
<path d="M629 3305 c-20 -7 -66 -30 -103 -51 -53 -31 -63 -40 -50 -47 21 -12
115 -1 162 19 37 15 102 70 102 86 0 12 -71 8 -111 -7z"/>
<path d="M740 3205 c-54 -17 -180 -77 -180 -87 0 -15 91 -40 126 -35 66 11
159 71 185 120 9 15 4 17 -38 16 -26 0 -68 -7 -93 -14z"/>
<path d="M872 3061 c-62 -18 -127 -65 -116 -83 3 -4 40 -8 82 -8 83 0 153 25
201 71 23 22 23 23 5 30 -33 13 -106 8 -172 -10z"/>
<path d="M735 3012 c-33 -15 -37 -19 -20 -25 13 -6 26 0 44 18 30 30 28 30
-24 7z"/>
<path d="M3764 2988 c-32 -34 -60 -97 -67 -148 -3 -25 -3 -38 0 -30 3 8 21 32
39 52 32 36 58 104 52 135 -2 11 -8 10 -24 -9z"/>
<path d="M1867 2980 c-16 -23 -16 -25 11 -53 32 -34 39 -20 19 37 l-13 39 -17
-23z"/>
<path d="M3601 2957 c-22 -57 -7 -133 35 -182 14 -16 23 -24 19 -17 -4 7 -10
53 -15 102 -5 49 -13 97 -18 107 -10 16 -12 15 -21 -10z"/>
<path d="M1016 2954 c-80 -19 -250 -100 -241 -115 13 -20 74 -39 127 -39 69 0
159 42 224 104 39 38 46 49 34 56 -21 13 -74 11 -144 -6z"/>
<path d="M2125 2823 c-22 -2 -51 -6 -64 -9 l-24 -5 20 -22 c22 -23 20 -41 -5
-70 -8 -9 -13 -18 -11 -20 2 -1 33 28 68 65 36 38 63 67 60 66 -2 -1 -22 -3
-44 -5z"/>
<path d="M3521 2790 c14 -39 63 -88 96 -96 22 -6 24 -11 20 -38 l-6 -31 15 33
c14 33 14 33 -30 80 -25 26 -58 55 -75 65 l-30 18 10 -31z"/>
<path d="M3770 2799 c-25 -11 -55 -30 -67 -41 -17 -16 -23 -18 -24 -7 0 8 -5
3 -10 -10 -5 -13 -7 -26 -4 -29 3 -3 5 -1 5 5 0 6 17 13 39 17 22 3 50 17 66
33 16 16 25 22 20 14 -5 -10 -4 -12 4 -7 6 4 9 11 6 16 -3 5 3 13 12 19 31 18
0 11 -47 -10z"/>
<path d="M1190 2795 c-73 -17 -200 -66 -244 -95 l-30 -19 30 -12 c16 -6 58
-13 94 -16 81 -6 143 13 258 82 69 40 80 50 64 56 -43 16 -110 17 -172 4z"/>
<path d="M3470 2726 c0 -34 40 -88 85 -113 51 -28 65 -16 35 31 -20 33 -98
106 -114 106 -3 0 -6 -11 -6 -24z"/>
<path d="M3775 2693 c-46 -10 -48 -12 -34 -31 12 -15 11 -15 -8 1 -20 17 -22
17 -49 -7 l-29 -25 30 -1 c35 0 117 38 123 58 4 12 1 13 -33 5z"/>
<path d="M1316 2619 c-43 -10 -124 -40 -179 -66 l-100 -47 43 -19 c96 -42 245
-19 363 55 34 21 74 44 90 51 37 16 34 23 -17 36 -61 15 -107 13 -200 -10z"/>
<path d="M1494 2450 c-77 -20 -189 -65 -242 -97 l-32 -20 27 -13 c16 -7 66
-15 113 -18 103 -5 178 17 286 84 40 24 77 44 83 44 26 0 8 20 -26 29 -55 16
-128 12 -209 -9z"/>
<path d="M3599 2244 c-26 -7 -51 -20 -57 -27 -14 -16 19 -21 134 -22 70 0 85
3 117 25 24 16 32 27 24 32 -20 13 -169 8 -218 -8z"/>
<path d="M3611 2104 c-30 -8 -71 -27 -90 -42 l-36 -27 89 -3 c101 -3 165 13
209 53 15 14 27 28 27 30 0 11 -149 3 -199 -11z"/>
<path d="M3577 1939 c-42 -10 -113 -44 -121 -58 -8 -12 134 -25 181 -16 47 8
102 37 127 64 l19 21 -84 -1 c-46 -1 -101 -5 -122 -10z"/>
<path d="M3535 1390 c-22 -5 -53 -13 -69 -20 l-29 -11 29 -30 c25 -26 34 -29
64 -24 47 9 79 27 114 64 l30 31 -50 -1 c-27 -1 -67 -5 -89 -9z"/>
<path d="M3613 1239 c-38 -11 -41 -19 -13 -44 19 -17 21 -17 41 1 11 10 25 27
30 36 11 21 -4 22 -58 7z"/>
</g>
</svg>
