<svg width="722" height="1058" viewBox="0 0 722 1058" fill="none" xmlns="http://www.w3.org/2000/svg">
<path d="M560.723 116.026C561.768 122.163 555.249 145.067 549.129 156.762C544.258 166.247 532.802 182.521 531.419 181.928C531.281 181.869 532.199 177.554 533.642 172.484C534.897 167.529 537.507 157.27 539.27 149.983C542.986 135.294 547.232 126.914 555.006 118.674C558.749 114.787 560.341 114.096 560.723 116.026Z" fill="#C9B7A0" fill-opacity="0.1"/>
<path d="M521.806 151.894C522.985 167.745 521.467 183.944 518.121 190.716C515.864 195.667 517.666 197.991 520.213 193.551C521.158 192.241 523.611 189.677 525.696 187.909C527.91 186.198 526.1 189.044 521.755 194.229C517.459 199.242 513.725 204.311 513.486 205.164C513.246 206.017 515.623 206.294 518.721 205.546C523.778 204.508 526.188 205.182 537.774 211.227C545.086 215.012 552.511 219.422 554.457 221.234L557.801 224.236L551.091 225.506C536.113 227.939 523.291 222.693 514.554 210.616C511.625 206.647 511.24 206.478 508.882 208.701C507.503 210.012 506.157 211.721 505.741 212.688C505.373 213.485 502.68 216.903 499.778 220.037C496.828 223.342 494.761 226.076 495.146 226.245C495.532 226.414 499.467 226.8 504.012 227.07C512.058 227.728 542.49 240.705 541.819 243.093C541.628 243.776 539.8 245.657 537.538 247.539C525.783 257.519 508.688 251.547 492.907 232.161C491.604 230.631 488.493 233.482 479.757 244.021C473.522 251.825 468.232 258.319 468.089 258.831C467.945 259.343 471.076 258.992 474.993 258.412C483.533 256.795 500.207 260.665 512.741 266.934L521.596 271.397L513.396 274.888C504.136 279.064 489.604 279.393 481.506 275.837C478.421 274.483 473.486 270.975 470.399 268.086C465.494 263.442 464.723 263.103 463.023 265.04C461.549 266.693 460.858 266.581 459.923 264.254C459.23 262.608 459.228 261.074 460.014 260.844C461.411 260.499 481.177 237.936 481.609 236.401C481.704 236.06 480.643 235.21 479.229 234.59C476.016 233.179 476.351 231.985 480.473 228.619C483.087 226.509 482.782 226.567 479.22 228.453L474.728 231.08L470.237 223.934C465.071 216.108 460.168 201.69 460.19 194.416C460.133 188.45 463.838 174.744 465.716 174.226C467.947 173.481 482.605 215.373 483.02 224.179C483.203 228.668 483.658 232.701 484.044 232.87C484.43 233.04 487.508 229.791 490.955 225.746C494.353 221.872 498.458 217.541 499.965 216.286C501.601 215.088 503.301 213.15 503.765 212.013C504.229 210.875 507.098 207.343 510.08 204.436L515.692 198.85L513.476 187.719C510.887 174.316 511.27 161.643 514.625 149.7C518.746 135.027 520.465 135.59 521.806 151.894Z" fill="#C9B7A0" fill-opacity="0.1"/>
<path d="M580.094 171.34C579.007 175.205 567.868 186.368 561.381 190.132C551.673 195.695 542.464 196.945 532.594 193.943C525.617 191.831 525.282 191.495 528.408 190.033C530.185 189.302 533.041 188.288 534.724 187.893L537.788 187.159L534.11 190.077C528.64 194.287 550.497 181.59 557.14 176.762C560.248 174.349 565.118 171.763 567.753 171.03C572.895 169.508 580.567 169.66 580.094 171.34Z" fill="#C9B7A0" fill-opacity="0.1"/>
<path d="M498.548 168.013C503.115 188.105 503.437 214.321 499.044 215.711C496.625 216.406 491.77 198.913 491.003 186.902C490.58 178.934 491.189 174.14 493.406 167.324L496.389 158.313L498.548 168.013Z" fill="#C9B7A0" fill-opacity="0.1"/>
<path d="M311.923 106.363C313.387 111.075 313.324 111.823 310.896 113.668C309.414 114.763 309.007 115.167 310.164 114.704C311.371 114.069 312.611 113.837 313.264 114.123C314.964 114.867 315.382 125.907 314.232 136.261C313.272 144.371 313.635 159.264 314.77 163.057C314.935 163.517 319.891 161.034 325.709 157.572C337.657 150.59 340.171 150.528 336.137 156.516C331.779 163.138 324.626 168.73 319.633 169.258C315.129 169.612 315.08 169.784 315.682 175.476L316.235 181.341L327.233 173.555C333.426 169.288 339.017 166.114 339.67 166.4C340.585 166.801 339.939 169.62 338.333 173.763C335.316 181.36 328.474 186.894 321.538 187.541C319.107 187.833 317.019 188.47 316.873 188.987C316.145 191.577 316.03 204.516 316.683 204.802C317.206 205.031 319.096 203.532 321.049 201.285C322.954 199.211 327.809 195.521 331.753 192.983C338.696 188.656 338.957 188.771 337.841 192.741C335.996 199.3 326.069 211.626 320.9 213.822C317.117 215.267 316.157 216.591 315.921 220.56C315.268 227.059 316.624 227.459 320.463 222.161C324.302 216.863 343.268 202.678 343.925 204.517C345.157 207.965 340.078 220.281 335.634 225.121C331.01 230.075 318.981 236.827 316.628 235.797C315.451 235.282 313.745 245.004 314.342 249.143C314.492 250.178 316.381 248.679 318.611 245.971C323.347 240.096 338.581 228.738 342.969 227.751C345.938 227.113 346.021 227.343 343.066 234.192C338.473 244.782 332.531 251.292 322.342 256.717L313.05 261.566L311.5 275.428C309.771 289.405 310.447 292.222 313.585 286.81C316.77 281.226 330.115 271.366 340.419 266.572C350.495 262.067 350.626 262.124 349.364 266.612C346.014 278.522 334.858 288.953 320.278 293.812C310.72 296.994 309.547 298.032 308.726 302.519C307.729 308.674 303.912 309.716 304.468 303.562C312.448 228.732 313.509 215.044 313.15 181.347L312.888 160.875L307.476 157.148C302.016 153.594 293.985 140.384 294.202 135.438C294.239 130.608 306.516 144.902 310.113 154.038C311.278 156.681 312.294 158.289 312.488 157.599C313.168 155.182 311.203 139.199 309.059 130.118C307.113 121.899 307.426 103.036 309.447 101.595C309.936 101.421 310.986 103.432 311.923 106.363Z" fill="#C9B7A0" fill-opacity="0.1"/>
<path d="M335.594 122.585C334.644 135.103 327.364 149.983 320.466 153.275C317.964 154.546 318.063 154.197 320.353 149.896C321.74 147.165 324.983 138.966 327.657 131.696C332.385 118.262 336.186 114.026 335.594 122.585Z" fill="#C9B7A0" fill-opacity="0.1"/>
<path d="M451.581 211.799C454.534 220.413 457.78 231.082 458.789 235.762L460.611 244.265L456.933 246.503L453.207 248.912L447.383 231.912C442.208 216.737 441.671 213.997 443.144 206.17C443.927 201.314 444.954 197.142 445.357 196.741C445.841 196.568 448.581 203.356 451.581 211.799Z" fill="#C9B7A0" fill-opacity="0.1"/>
<path d="M418.895 210.395C418.556 211.602 421.714 220.147 425.818 229.494C429.922 238.842 433.947 249.509 434.687 253.124L436.181 259.779L428.22 265.194L420.211 270.78L428.466 265.882L436.542 261.099L438.089 269.131C438.847 273.722 439.121 280.036 438.77 283.366C438.467 286.524 438.392 289.394 438.913 289.622C439.825 290.022 454.901 271.273 454.443 270.299C454.231 270.012 452.158 266.975 449.661 263.364C445.222 256.773 444.794 254.65 447.851 253.667C448.778 253.493 450.769 256.301 452.257 259.856L455.021 266.681L452.793 259.511C450.974 253.488 450.971 251.938 453.034 250.326C454.334 249.347 455.845 248.654 456.367 248.883C457.93 249.568 457.823 260.36 456.284 263.75C455.491 265.532 455.319 268.747 455.925 270.754C456.762 274.024 454.605 277.531 436.382 300.707C425.023 315.084 415.872 327.332 416.036 327.791C416.2 328.25 417.745 327.96 419.305 327.095C425.009 323.982 434.916 323.098 443.576 324.57C452.886 326.328 483.503 339.746 485.397 342.899C487.046 345.363 475.879 350.728 465.779 352.301C459.695 353.119 456.244 352.381 444.128 347.071C436.18 343.588 426.212 338.445 421.763 335.527L413.601 330.208L401.4 346.539C387.836 364.595 386.215 367.756 391.968 364.471C398.257 360.84 408.7 359.61 418.856 360.964C429.272 362.432 464.383 377.045 467.092 380.942C468.398 383.063 467.229 384.099 459.98 387.503C445.838 394.08 436.661 393.929 419.854 386.563C411.907 383.08 401.026 377.537 395.487 374.336L385.37 368.16L374.096 384.316C367.932 393.228 362.986 400.932 363.15 401.391C363.313 401.849 364.858 401.559 366.597 400.579C371.814 397.639 383.43 396.923 394.579 398.906C405.208 400.661 432.241 411.734 438.907 417.172L442.394 419.862L435.796 423.551C419.707 432.371 400.032 430.523 381.197 418.397C375.968 415.137 368.783 411.021 365.135 409.422L358.8 406.452L352.003 416.054C348.304 421.402 344.055 427.668 342.498 430.083C340.017 434.222 339.578 434.223 338.384 431.183C337.238 427.971 338.031 426.19 346.207 414.288C351.186 406.987 357.253 398.419 359.492 395.142C361.86 391.922 367.961 383.757 372.974 376.857C388.24 355.869 404.255 334.822 421.699 312.853C430.835 301.179 438.038 291.174 437.841 290.314C437.465 289.568 436.177 288.423 434.874 287.852C426.275 284.084 411.879 255.129 410.707 239.518C410.036 229.933 413.276 215.288 417.123 210.973C418.389 209.593 419.186 209.361 418.895 210.395ZM481.135 342.966C480.892 343.828 481.302 344.975 482.083 345.317C482.735 345.603 483.238 344.856 483.089 343.823C482.989 342.617 482.531 341.643 482.14 341.471C481.88 341.357 481.425 341.932 481.135 342.966Z" fill="#C9B7A0" fill-opacity="0.1"/>
<path d="M301.411 164.521C304.24 167.032 307.881 171.18 309.391 173.852L312.044 178.488L308.123 177.336C302.469 175.8 296.537 169.742 294.346 163.473C292.28 157.258 293.335 157.533 301.411 164.521Z" fill="#C9B7A0" fill-opacity="0.1"/>
<path d="M447.035 236.439C450.672 246.679 451.224 250.379 449.809 251.295C448.218 252.325 447.202 251.303 445.538 246.923C443.26 241.121 440.498 224.158 441.608 223.3C442.09 223.128 444.497 228.986 447.035 236.439Z" fill="#C9B7A0" fill-opacity="0.1"/>
<path d="M307.831 192.57C312.235 196.452 312.111 198.383 307.275 199.004C297.604 200.247 288.11 194.892 285.406 186.512C284.169 182.912 284.386 182.645 289.188 183.633C295.969 185.112 303.426 188.687 307.831 192.57Z" fill="#C9B7A0" fill-opacity="0.1"/>
<path d="M398.672 244.813C405.792 259.903 414.182 288.095 415.093 299.883C415.46 305.834 415.184 314.591 414.318 319.229L412.697 327.589L410.599 322.616C409.493 319.815 405.869 313.014 402.653 307.357C391.086 286.842 386.82 264.705 390.849 244.663C391.909 239.337 393.116 235.042 393.505 235.212C393.894 235.383 396.185 239.669 398.672 244.813ZM395.301 289.463C394.915 290.838 396.468 289.975 403.957 284.575L412.061 279.058L403.664 284.06C399.134 286.706 395.398 289.119 395.301 289.463Z" fill="#C9B7A0" fill-opacity="0.1"/>
<path d="M302.556 211.648C304.09 213.2 306.447 215.82 307.764 217.636C309.905 220.521 309.94 220.893 307.521 221.463C300.733 223.016 287.391 213.893 282.633 204.346C280.879 201.091 281.427 201.148 290.225 204.925C295.378 207.137 300.978 210.256 302.556 211.648Z" fill="#C9B7A0" fill-opacity="0.1"/>
<path d="M500.6 299.696L508.772 304.343L504.726 308.64C498.989 314.406 488.705 316.731 480.31 314.372L473.395 312.289L468.852 299.311C466.055 291.677 464.78 286.171 465.848 285.9C468.328 285.142 491.259 294.175 500.6 299.696Z" fill="#C9B7A0" fill-opacity="0.1"/>
<path d="M467.396 299.849L472.138 313.288L465.504 309.087C458.156 304.39 447.148 292.504 447.723 289.959C448.238 288.133 455.417 285.862 459.842 286.302C461.928 286.467 463.805 289.895 467.396 299.849Z" fill="#C9B7A0" fill-opacity="0.1"/>
<path d="M297.891 231.075C303.974 235.48 308.151 240.14 307.149 241.68C305.316 244.653 295.242 243.368 286.704 239.162C279.675 235.604 278.142 234.05 276.294 229.137C275.044 226.093 274.422 223.318 274.935 223.002C276.133 222.263 294.598 228.765 297.891 231.075Z" fill="#C9B7A0" fill-opacity="0.1"/>
<path d="M372.418 279.302C376.614 289.25 379.741 298.343 379.451 299.374C379.113 300.577 377.755 302.297 376.461 303.274C374.633 304.595 374.892 304.709 377.369 303.672C380.201 302.405 380.753 303.033 383.442 312.127C387.37 325.625 388.585 344.11 386.435 355.907L384.606 365.528L380.59 357.011C378.395 352.38 374.689 345.35 372.479 341.292C366.922 331.519 359.967 310.13 359.058 299.887C357.737 285.409 360.866 259.757 363.719 261.009C364.238 261.236 368.173 269.525 372.418 279.302Z" fill="#C9B7A0" fill-opacity="0.1"/>
<path d="M295.16 252.25C297.115 253.798 300.091 257.205 301.856 259.915L305.019 264.646L296.563 263.157C285.962 261.282 278.882 258.427 278.463 255.938C278.231 254.772 277.568 254.133 276.804 254.339C275.278 254.751 267.435 245.173 266.981 242.313C266.33 238.659 287.465 246.111 295.16 252.25ZM273.535 248.497C274.295 250.777 275.523 252.901 276.151 253.17C276.904 253.493 276.647 251.428 275.645 248.512C273.562 242.467 271.497 242.293 273.535 248.497Z" fill="#C9B7A0" fill-opacity="0.1"/>
<path d="M340.599 297.546C338.662 301.87 338.921 303.517 344.575 315.773C357.026 342.894 363.095 375.261 359.543 394.59L357.679 404.312L355.197 398.24C353.811 394.949 349.946 387.12 346.517 380.823C338.467 365.791 329.905 340.76 331.037 335.7C332.44 328.65 333.443 312.227 332.415 311.775C331.772 311.493 331.243 311.836 331.051 312.518C330.812 313.371 329.16 315.138 327.252 316.791C323.836 319.699 323.836 319.699 320.586 314.823C317.834 310.74 316.854 310.118 314.013 310.979L310.515 312.126L314.78 308.25C319.494 303.803 335.087 294.551 339.71 293.515C342.454 292.995 342.535 293.222 340.599 297.546Z" fill="#C9B7A0" fill-opacity="0.1"/>
<path d="M284.567 277.146C291.725 282.715 297.345 289.23 298.908 293.648L300.667 298.864L293.162 296.001C275.89 289.304 268.858 283.788 264.244 273.243L260.962 265.946L271.598 270.689C277.505 273.223 283.321 276.075 284.567 277.146Z" fill="#C9B7A0" fill-opacity="0.1"/>
<path d="M624.258 441.102C620.317 450.421 610.676 462.28 602.245 468.275C588.881 477.728 588.064 476.983 595.694 462.886C603.131 449.48 611.018 440.728 619.259 436.975C626.605 433.798 627.209 434.257 624.258 441.102Z" fill="#C9B7A0" fill-opacity="0.1"/>
<path d="M319.18 319.671C320.216 321.067 320.855 322.856 320.666 323.527C320.477 324.199 316.053 326.222 310.818 328.078C305.583 329.934 301.238 332.181 301.209 333.299C301.228 334.25 299.869 337.05 298.176 339.514C295.154 343.66 295.154 343.66 296.16 339.574C298.205 331.795 297.137 330.007 288.669 327.619C281.219 325.676 280.964 325.565 284.39 324.048C286.294 323.373 288.735 321.802 289.795 320.569C291.299 318.776 291.888 319.222 294.042 323.749C297.137 330.007 298.136 329.502 298.783 321.11C299.041 316.131 299.687 314.34 301.336 313.554C303.16 312.655 303.433 313.717 302.873 318.753C301.86 326.418 303.117 327.534 305.975 321.431C307.065 319.08 309.219 317.006 310.633 317.059C311.998 317.28 314.142 317.276 315.348 317.049C316.507 316.991 318.319 318.162 319.18 319.671Z" fill="#C9B7A0" fill-opacity="0.1"/>
<path d="M284.08 313.125C286.163 314.752 288.075 316.487 288.235 316.919C288.395 317.352 286.104 319.45 283.092 321.601C278.145 325.094 277.423 325.146 272.536 321.943C266.435 318.034 260.164 310.235 258.14 303.91L256.711 299.476L268.501 304.755C275.003 307.747 281.997 311.498 284.08 313.125Z" fill="#C9B7A0" fill-opacity="0.1"/>
<path d="M585.682 462.518C583.803 474.35 577.899 490.743 573.328 496.215C569.96 500.489 569.816 501.002 571.856 500.938C576.853 500.639 573.337 502.355 556.909 508.375C547.531 511.929 537.704 516.053 534.75 517.824C531.973 519.482 528.809 520.97 527.765 521.087C525.114 521.265 483.596 542.543 465.311 553.117C456.946 557.691 450.35 562.658 450.577 563.908C450.675 565.101 450.37 565.159 449.79 564.138C448.582 562.265 411.469 585.86 377.908 609.672C358.053 623.776 353.159 628.34 359.488 626.899C365.206 625.574 381.286 634.167 391.262 643.916C402.09 654.231 416.272 672.155 415.6 674.545C414.929 676.935 401.078 675.84 394.518 672.961C383.585 668.161 373.092 656.651 361.463 637.355C358.886 633.155 355.956 629.184 354.799 628.676C352.998 627.885 325.102 647.472 322.746 651.232C322.072 652.087 323.31 652.822 325.865 652.985C332.534 653.42 343.436 659.357 353.137 668.026C363.386 677.32 380.142 697.908 379.375 700.639C378.464 703.883 367.874 702.494 357.76 697.862C345.847 692.44 339.169 685.865 327.943 667.705C323.821 661.293 319.812 655.505 319.04 655.166C318.268 654.828 311.157 659.568 303.277 665.506L289.058 676.522L296.291 678.547C308.089 681.809 321.281 692.97 337.217 713.39C346.94 726.097 346.958 727.063 336.867 726.468C321.714 725.377 305.435 712.861 293.822 692.997C290.261 686.639 286.59 681.192 285.818 680.853C284.403 680.232 247.169 708.376 246.593 710.425C246.45 710.937 248.571 711.101 251.269 710.752C264.057 709.462 290.649 720.753 310.241 735.874C320.359 743.576 320.586 744.826 312.764 746.954C292.19 752.304 267.207 742.487 249.406 722.015C242.502 714.19 240.671 714.537 226.196 726.976C218.782 733.31 212.557 739.014 212.413 739.526C212.221 740.209 213.956 740.204 216.221 739.856C223.546 738.469 234.684 740.482 246.002 745.451L256.935 750.251L261.324 762.917C263.696 769.903 266.099 775.752 266.613 775.978C267.256 776.26 265.754 770.806 263.334 763.991C258.38 749.735 258.38 749.735 274.641 761.284C290.854 773.004 291.144 773.515 281.893 775.59C262.683 780.197 242.557 773.663 224.827 757.058C206.71 740.283 210.277 739.931 191.153 759.15C154.204 796.049 125.921 836.561 102.968 885.358C95.8885 900.276 95.2149 901.131 92.2567 899.832C89.5556 898.647 89.2002 897.34 90.0915 891.595C90.7126 887.84 90.7386 883.633 90.1739 882.042C89.6092 880.452 91.9238 870.154 97.3902 850.692C104.583 825.084 105.703 822.124 106.848 824.736C107.831 826.894 108.346 827.12 108.729 825.754C109.017 824.729 108.629 823.025 107.744 822.061C106.649 820.813 107.316 815.353 110.029 803.121C113.876 785.824 113.876 785.824 110.368 782.366C108.598 780.439 105.751 778.23 104.208 777.552C99.4486 775.463 88.6658 763.442 84.7502 755.778C81.0439 748.398 77.2806 735.048 78.8218 734.19C80.4109 733.162 90.9821 743.364 99.3211 754.312C104.649 761.062 109.337 769.065 111.305 774.915L114.565 784.401L118.253 768.185C122.387 749.864 122.047 747.989 114.295 742.668C105.947 736.894 95.8251 726.122 92.908 720.047L90.2482 714.085L95.0156 711L99.6544 707.859L107.575 718.24C112.146 724.082 116.995 732.539 118.803 737.935L122.062 747.42L123.645 741.787C125.77 733.706 129.88 709.814 129.444 708.28C129.202 707.598 125.391 705.734 121.227 704.097C116.935 702.405 113.558 700.539 113.798 699.685C113.989 699.002 116.477 696.834 119.254 695.177L124.15 692.148L126.971 698.565C128.615 701.971 130.146 704.753 130.499 704.524C131.783 703.554 136.656 673.859 135.993 671.075C135.428 669.485 131.938 666.994 126.664 664.679C116.246 660.105 109.102 653.133 104.637 643.31C100.01 633.033 101.004 631.552 109.544 636.643C119.788 642.866 131.277 654.43 134.002 661.188C135.212 664.596 136.533 667.093 136.758 666.809C137.111 666.58 138.499 660.094 139.789 652.414C142.433 636.316 141.82 634.896 129.344 629.419C117.768 624.337 109.285 613.901 106.873 601.911C105.951 597.479 105.951 597.479 113.59 602.175C125.024 609.304 135.58 620.075 138.966 628.082C140.595 632.057 142.077 635.009 142.221 634.497C143.804 628.863 153.818 533.539 153.948 523.816C153.817 522.225 152.226 521.718 147.583 521.789C143.678 521.801 138.47 520.281 133.421 517.681C126.539 513.893 125.316 512.589 122.976 506.001L120.443 498.56L135.171 505.793C145.365 510.652 150.399 513.82 151.463 516.205C153.462 520.918 154.231 519.722 154.861 510.793L155.46 503.002L147.198 500.525C139.884 498.273 138.098 496.914 132.818 489.994C128.713 484.548 127.568 481.936 128.966 481.59C132.323 480.955 148.952 491.707 151.69 496.361C153.06 498.688 154.444 500.446 154.845 500.047C155.198 499.819 155.754 495.268 155.987 489.809C156.505 481.791 156.117 480.086 154.029 480.32C152.679 480.495 148.437 480.167 144.805 479.723C138.972 478.888 137.605 478.096 134.304 473.387C128.088 464.138 129.645 462.712 140.578 467.511C145.851 469.826 151.528 473.277 153.218 474.978C156.082 478.153 156.082 478.153 156.878 472.749C157.845 464.161 158.556 466.774 158.138 477.522C157.905 482.981 157.705 488.838 157.578 490.316C157.517 492.591 157.951 492.589 159.876 490.366C164.223 485.179 177.622 473.994 180.24 473.417C182.73 472.784 182.715 473.353 179.864 479.389C176.836 485.538 175.168 487.875 170.756 492.266C169.152 493.863 168.509 493.581 167.089 489.889C166.073 487.334 165.06 486.313 164.772 487.338C164.484 488.362 165.082 490.35 165.952 491.883C167.707 494.379 167.611 494.721 164.496 496.038C162.697 496.782 160.384 497.301 159.484 496.906C157.555 496.059 157.012 498.505 156.912 507.091L156.777 513.744L161.989 507.019C167.474 499.838 184.309 486.71 186.624 487.726C188.939 488.742 182.407 504.284 178.234 507.822L174.463 510.961L172.656 505.565C171.655 502.441 170.414 500.17 170.013 500.57C169.484 500.912 169.889 503.583 170.809 506.48L172.488 511.82L168.008 513.88C165.504 515.082 161.97 515.832 160.154 515.61C158.162 515.502 156.749 516.416 156.751 517.952C156.802 519.316 156.39 523.354 155.993 526.824C155.42 530.407 155.424 533.478 155.939 533.704C156.325 533.873 158.651 531.25 160.992 528.059C163.462 524.925 170.169 519.048 176.173 515.163C186.462 508.366 186.943 508.194 186.131 512.631C185.716 515.134 184.18 519.062 182.641 521.455L179.883 525.614L177.899 520.332C175.303 513.631 174.374 515.908 176.65 523.236L178.506 528.461L170.656 533.261C166.338 535.776 161.104 538.464 159 539.266L155.098 540.813L154.264 552.528C153.743 559.012 153.399 565.381 153.401 566.916C153.355 568.622 154.992 567.423 157.863 563.889C160.333 560.754 164.119 557.047 166.367 555.732C169.85 553.618 170.587 552.024 172.23 544.116L174.081 534.956L176.403 540.578C178.757 546.598 180.397 546.934 189.084 543.268C192.681 541.779 192.761 542.006 191.898 545.079C190.604 549.689 188.934 550.49 187.371 547.311C186.597 545.437 186.082 545.211 185.746 546.406C185.459 547.43 185.927 549.362 186.845 550.724C188.182 552.653 187.975 553.904 186.322 555.672C184.574 557.781 185.045 561.248 188.889 574.825C191.506 584.028 193.703 592.664 193.706 594.199C193.756 595.563 194.404 598.916 195.324 601.813C197.923 610.049 199.225 632.674 197.619 644.051C196.808 650.023 196.687 654.572 197.297 654.457C197.907 654.341 200.231 650.183 202.618 645.286C204.957 640.56 207.442 636.857 208.085 637.139C208.728 637.422 209.497 636.225 209.848 634.462C211.428 627.293 212.743 625.185 213.839 627.968C215.773 631.885 217.569 629.605 216.213 625.174C215.535 622.959 215.644 620.514 216.446 619.715C218.676 617.434 221.58 625.613 219.625 628.973C218.76 630.511 218.123 634.834 218.274 638.928C218.414 646.66 216.01 650.59 214.475 644.739C213.57 641.273 210.337 638.895 209.666 641.285C209.426 642.139 210.459 645.661 211.879 649.352L214.299 656.168L220.237 651.487C223.559 648.918 228.841 646.06 232.117 645.197C238.06 643.587 238.236 643.472 241.964 632.26L245.691 621.048L240.674 618.846C233.858 615.853 227.078 616.328 225.027 620.03C223.263 622.708 223.087 622.822 221.587 618.904C220.732 616.803 220.342 613.563 220.821 611.856C221.301 610.149 218.457 599.695 214.505 588.563C201.791 553.066 199.929 531.921 206.94 503.357L211.221 486.059L215.594 499.294C224.924 528.32 229.914 567.138 227.103 589.492C226.325 595.862 226.284 600.638 227.038 600.01C230.183 597.556 241.3 574.438 245.651 561.006L250.513 546.265L243.794 533.152C240.216 525.828 236.573 517.709 235.734 515.039C234.894 512.369 231.624 506.523 228.485 502.268C223.043 494.893 215.608 476.096 216.663 472.34C217.047 470.974 225.909 476.974 227.777 480.096C228.728 481.855 229.063 480.66 230.796 467.805C231.94 459.103 231.645 455.521 229.097 448.649C226.387 441.323 224.267 431.379 225.425 431.888C225.682 432.001 229.624 435.457 234.241 439.593C246.694 450.813 255.741 462.84 260.208 474.197L264.063 484.136L265.8 474.351C267.09 466.671 266.907 462.18 264.596 452.919L261.621 440.875L252.502 434.762C242.74 428.367 234.868 417.815 233.442 409.518C232.776 405.199 232.776 405.199 242.94 411.195C248.536 414.419 254.841 418.721 256.916 420.591L260.552 424.105L261.684 417.506C262.257 413.922 263.325 408.063 263.978 404.706C265.223 398.732 265.014 398.449 258.918 394.43C249.928 388.374 241.249 375.551 240.304 367.082C239.929 363.273 240.058 363.33 247.101 367.573C257.94 374.249 267.722 383.146 272.473 390.409C274.808 393.927 276.982 396.991 277.239 397.104C277.625 397.273 278.087 394.599 278.483 391.13C279.117 385.272 279.342 384.987 281.13 387.881C282.789 390.719 282.92 392.31 281.664 401.923C281.187 405.165 281.444 405.278 282.935 403.056C285.1 399.979 323.416 375.187 324.959 375.864C326.889 376.711 324.214 382.633 318.697 389.415L313.051 396.142L314.778 401.311C315.698 404.208 317.115 406.364 317.774 406.077C318.561 405.848 318.787 407.098 318.26 408.976C317.78 410.683 317.951 417.278 318.651 423.53C319.368 430.749 319.027 438.653 317.815 445.025L315.805 455.265L313.289 448.791C310.483 441.806 309.053 441.754 307.135 448.582C306.416 451.143 302.248 457.751 297.934 463.337C293.668 468.751 290.046 474.448 290.096 475.812C289.796 490.255 289.682 489.63 293.294 487.572C295.012 486.6 300.85 479.191 305.964 471.272C311.077 463.353 317.987 453.155 321.323 448.482C326.726 441.074 327.481 440.447 328.658 443.457C329.707 446.41 329.371 447.605 325.715 452.904C323.632 456.208 321.997 458.942 322.254 459.055C322.511 459.168 325.836 458.134 329.69 456.758C339.02 453.375 347.905 453.632 362.725 457.454C374.7 460.601 399.589 472.295 400.59 475.419C401.397 477.691 388.391 483.871 379.765 485.262C366.127 487.521 353.605 483.75 336.477 472.203C325.781 465.014 321.247 462.64 319.834 463.554C316.833 465.496 308.85 478.484 307.268 484.118C305.845 488.671 302.976 493.74 297.06 502.457C295.12 505.249 295.249 505.306 299.809 503.472C307.79 500.264 321.256 501.19 337.265 505.917L352.375 510.249L356.893 522.971L361.41 535.694L357.397 538.151L353.336 540.778L355.627 536.223C357.645 532.123 357.612 531.725 355.09 531.96C338.174 533.547 337.354 533.379 323.93 527.677C316.469 524.402 305.681 519.09 299.875 515.583L289.374 509.247L277.61 529.012C271.247 539.834 265.878 549.175 265.686 549.858C265.446 550.712 267.807 550.022 270.922 548.705C279.529 544.813 291.918 545.457 308.619 550.296C321.832 554.179 324.081 554.4 325.797 551.893C327.656 548.874 327.656 548.874 328.112 552.909C328.535 556.547 326.802 558.087 314.089 566.313C297.315 577.167 297.491 577.053 276.502 562.277C269.392 557.238 263.877 554.242 262.946 554.984C259.897 557.097 231.579 606.99 232.353 608.864C232.434 609.091 236.126 607.261 240.573 604.802C248.07 600.231 260.389 597.009 273.386 596.003C276.342 595.767 279.409 594.62 280.002 593.538C280.595 592.456 281.957 590.177 283.128 588.582C285.436 584.993 286.077 583.74 286.958 581.634C287.245 580.609 288.209 580.265 288.981 580.604C290.01 581.056 289.641 581.853 288.133 583.108C286.095 584.707 286.175 584.934 287.911 584.928C289.26 584.754 290.163 586.684 290.296 589.811C290.396 592.54 291.283 595.039 292.055 595.378C293.599 596.055 310.472 597.71 311.307 597.309C311.531 597.024 312.168 592.701 312.786 587.411L313.817 578.084L308.256 576.793L302.566 575.445L315.857 566.706L329.019 557.91L335.886 562.267C339.601 564.473 342.834 566.851 343.124 567.362C343.366 568.044 340.622 570.099 337.057 571.986L330.716 575.53L330.372 593.214C329.992 607.43 329.166 613.971 326.049 625.067C323.972 632.977 322.455 639.407 322.889 639.405C324.223 639.799 351.025 618.965 352.082 616.744C352.723 615.491 352.262 608.385 350.982 601.111C347.823 583.04 347.636 565.699 350.494 552.955C352.44 543.453 353.081 542.201 357.094 539.744C361.412 537.229 361.541 537.285 363.893 541.77C368.55 550.91 366.377 591.569 360.533 605.688C358.996 609.616 357.957 612.803 358.214 612.916C359.5 613.48 388.584 593.264 389.594 591.214C390.234 589.962 389.938 584.845 388.983 580.015C386.44 566.434 385.454 551.427 386.336 539.541C387.645 523.048 389.23 518.95 396.245 514.55C399.552 512.55 402.41 511.12 402.652 511.802C403.653 514.926 404.222 530.901 403.809 544.719C403.489 556.66 402.375 564.225 399.642 573.956C397.709 581.353 396.031 587.329 396.031 587.329C396.159 587.385 401.762 583.9 408.648 579.444L421.089 571.673L418.673 556.613C415.12 533.767 415.852 517.788 421.035 502.421C423.258 495.534 426.813 487.507 428.753 484.715L432.361 479.587L433.722 498.402C435.378 520.799 434.093 542.864 430.338 556.748C428.803 562.211 428.119 566.705 428.681 566.76C429.292 566.645 434.927 563.557 441.235 559.615L452.793 552.416L450.916 543.154C447.872 527.243 447.657 512.574 450.419 500.171C453.117 488.507 459.074 475.014 461.261 475.974C462.804 476.651 464.815 500.355 464.465 513.433C464.184 519.063 463.219 529.186 462.297 536.069L460.403 548.469L470.71 542.639L480.84 536.922L478.191 527.321C471.877 505.564 474.733 481.505 484.647 470.899L489.027 466.109L490.534 485.948C491.241 496.806 491.327 511.418 490.743 518.641C490.078 525.636 489.477 531.892 489.686 532.176C489.719 532.574 492.433 531.656 495.725 530.224L501.569 527.421L500.291 521.682C497.265 506.738 502.286 479.601 509.379 473.894L512.797 470.984L512.643 475.135C512.582 477.409 511.847 480.539 510.982 482.076C509.892 483.899 509.864 486.572 511.008 489.184C512.96 494.067 512.501 509.591 510.151 517.956L508.521 523.761L516.148 520.781C520.355 519.176 524.563 517.571 525.398 517.171C526.361 516.826 526.503 514.779 525.663 512.109C524.421 508.304 524.58 507.223 526.618 505.625C527.902 504.654 529.857 501.294 530.977 498.334C532.658 493.894 532.59 491.563 530.284 485.372C528.461 480.545 526.497 477.765 525.195 477.769C523.54 478.001 523.137 476.865 523.808 474.475C524.911 470.549 531.806 460.919 533.092 461.484C534.716 462.388 536.214 497.181 534.876 505.031C534.143 509.696 533.779 513.563 534.037 513.676C534.294 513.789 537.313 512.813 540.605 511.382C543.897 509.95 546.835 508.747 547.14 508.689C547.445 508.632 547.729 504.537 547.898 499.817C548.218 487.876 552.615 472.739 557.635 466.697L561.58 461.909L560.663 471.861C560.253 477.435 558.292 487.505 556.422 494.163C554.632 501.048 553.179 506.738 553.307 506.794C553.436 506.851 556.841 506.044 560.776 504.895C565.674 503.402 567.889 501.69 567.854 499.757C567.611 487.76 575.933 465.333 583.425 457.692L587.083 453.928L585.682 462.518ZM286.264 405.093C281.237 406.53 280.965 406.986 279.755 414.892C278.195 424.563 278.056 428.145 279.47 428.767C279.985 428.992 284.142 426.023 288.587 422.03L296.674 414.841L294.867 409.445C292.784 402.97 292.913 403.026 286.264 405.093ZM267.361 399.863C266.819 402.309 274.534 415.477 275.206 413.087C277.139 405.689 276.315 402.451 272.07 400.588C269.626 399.515 267.553 399.18 267.361 399.863ZM287.081 436.135C284.816 436.483 282.889 437.171 282.745 437.683C282.187 440.698 287.043 453.761 288.327 452.79C289.258 452.048 293.864 448.509 298.742 444.514L307.473 437.608L305.41 433.634C303.38 430.058 302.818 430.003 297.15 432.693C293.811 434.295 289.346 435.787 287.081 436.135ZM427.625 492.849C425.281 494.505 423.725 495.931 424.111 496.1C424.368 496.213 426.567 495.07 428.911 493.414C431.254 491.758 432.811 490.331 432.425 490.162C432.168 490.049 429.968 491.193 427.625 492.849ZM335.999 464.13C337.532 468.447 339.208 472.251 339.98 472.59C340.623 472.872 340.104 469.576 338.571 465.26C337.039 460.943 335.362 457.139 334.59 456.8C333.947 456.518 334.466 459.814 335.999 464.13ZM272.336 482.973C269.463 484.972 268.663 487.306 265.886 500.278C262.663 515.355 262.942 519.505 266.643 512.5C267.653 510.45 271.775 505.548 275.738 501.726L282.957 494.54L280.008 488.067C276.445 480.175 276.316 480.118 272.336 482.973ZM249.765 485.146C251.59 491.508 253.772 500.713 254.599 505.486C256.446 515.885 258.135 517.586 259.04 509.737C259.469 506.665 260.569 501.204 261.528 497.789C262.487 494.375 263.028 490.393 262.768 488.745C262.396 486.472 252.919 477.517 247.323 474.294C246.727 473.84 247.763 478.898 249.765 485.146ZM267.187 521.368C262.033 524.283 260.911 525.708 259.313 531.911C257.716 538.113 256.016 551.366 257.025 549.316C257.298 548.86 261.561 541.911 266.466 533.708C271.451 525.733 274.976 518.843 274.461 518.617C273.818 518.334 270.574 519.595 267.187 521.368ZM383.998 599.305C384.144 600.328 384.933 601.634 385.576 601.916C386.348 602.255 386.716 601.458 386.57 600.435C386.472 599.241 385.635 598.106 384.992 597.824C384.22 597.485 383.9 598.112 383.998 599.305ZM304.393 615.752C300.38 618.209 295.9 620.27 294.326 620.729C291.836 621.362 291.549 622.386 290.278 632.568L289.025 643.716L293.898 646.43L298.899 649.201L291.838 655.306C288.019 658.615 283.849 663.688 282.471 666.536C279.749 672.628 278.866 673.199 300.565 656.644L317.256 644.028L316.299 637.663C313.848 620.67 312.469 612.202 312.003 611.806C311.746 611.693 308.229 613.409 304.393 615.752ZM160.911 571.555C157.234 572.818 153.909 573.851 153.556 574.08C152.545 574.594 149.96 598.198 150.989 598.65C151.504 598.876 152.626 597.451 153.764 595.457C154.774 593.407 158.575 589.132 162.394 585.822C168.123 580.858 169.165 579.206 169.014 575.113C169.043 572.44 168.718 569.997 168.332 569.827C167.946 569.658 164.669 570.521 160.911 571.555ZM265.989 624.397C260.621 623.959 260.493 623.902 259.379 631.468C258.791 635.62 258.508 639.715 258.83 640.624C259.428 642.612 271.945 643.313 272.521 641.264C273.24 638.703 272.818 625.286 272.047 624.948C271.661 624.778 268.977 624.559 265.989 624.397ZM149.749 607.694C148.79 611.108 146.598 628.172 146.428 632.892C146.383 634.598 148.148 633.455 150.939 629.694C155.429 623.995 161.304 620.054 171.131 615.93L175.868 613.983L173.542 605.29L171.215 596.598L160.873 600.496C154.515 603.074 150.277 605.816 149.749 607.694ZM268.849 668.226C265.653 669.316 260.899 670.297 258.376 670.532C254.071 670.943 253.493 671.457 249.701 681.873C247.541 688.02 244.707 695.022 243.377 697.699C241.631 701.343 244.89 699.514 258.933 688.611C272.045 678.451 276.634 673.945 276.839 671.158C277.185 666.324 276.108 666.043 268.849 668.226ZM216.167 659.289C215.16 662.874 216.991 662.527 225.628 657.498C231.664 654.011 233.493 652.129 232.767 650.084C232.122 648.267 229.985 648.671 224.335 652.328C220.145 654.899 216.503 658.094 216.167 659.289ZM156.138 636.388C147.898 637.948 145.217 639.264 145.108 641.709C145.062 643.415 144.284 649.785 143.393 655.531C142.582 661.503 142.14 666.678 142.301 667.133C142.415 667.758 144.42 665.762 146.537 662.856C151.3 656.7 164.56 649.098 175.081 646.621C181.538 645.237 182.534 645.291 181.862 647.681C179.081 657.582 163.737 668.489 150.243 670.236C143.062 671.11 141.874 671.74 140.676 676.008C139.908 678.739 138.226 681.644 136.99 682.444C135.224 683.586 135.304 683.813 137.345 683.75C139.562 683.573 139.708 684.596 138.27 689.717C137.311 693.132 137.058 696.089 137.83 696.428C138.473 696.71 139.403 695.968 139.787 694.603C140.842 690.847 155.641 680.852 166.336 676.725C177.737 672.142 178.254 673.903 169.033 686.156C163.004 694.248 156.519 698.304 144.2 701.526L135.992 703.484L134.27 712.7C133.266 717.82 132.039 724.761 131.642 728.23L130.864 734.601L138.034 726.05C141.979 721.262 150.42 713.845 156.744 709.334L168.413 701.225L165.18 710.161C160.411 723.025 153.337 731.234 139.789 739.861L127.654 747.574L124.751 762.025L121.929 776.702L127.67 769.635C130.814 765.645 136.863 760.055 141.068 756.915C148.418 751.32 149.14 750.295 164.871 718.463C173.81 700.526 184.208 679.969 187.909 672.964C195.904 657.872 195.906 659.408 186.026 638.002L180.159 625.455L173.578 629.853C169.87 632.252 162.066 635.346 156.138 636.388ZM227.856 664.996C225.785 666.196 223.425 666.886 222.396 666.434C219.309 665.079 218.701 666.73 217.96 676.568C216.339 699.828 211.45 718.776 203.677 732.048C202.492 734.212 203.102 734.096 206.296 731.471C237.749 705.392 235.696 707.559 236.439 699.255C236.8 693.852 237.471 691.462 239.061 690.434C242.769 688.035 243.481 680.869 240.867 673.201C237.93 664.624 233.411 661.681 227.856 664.996ZM180.852 703.234C171.368 722.082 162.797 739.223 161.611 741.387C159.865 745.031 159.946 745.258 162.804 743.828C165.661 742.398 165.742 742.625 162.78 749.571C161.067 753.613 156.947 760.05 153.498 764.098C148.622 769.628 144.376 777.544 135.199 797.87C128.649 812.445 123.317 825.254 123.287 826.392C123.257 827.529 127.025 822.855 131.546 816.019C145.142 795.906 162.624 774.816 181.973 755.312C192 745.331 200.453 735.81 200.837 734.445C201.221 733.079 200.594 722.448 199.613 710.511C198.583 698.745 198.048 684.703 198.667 679.413C199.11 674.238 199.231 669.689 198.846 669.519C198.46 669.35 190.288 684.556 180.852 703.234ZM114.662 806.688C111.404 819.832 107.953 833.659 106.803 837.757C105.556 842.195 105.351 844.982 106.315 844.638C107.102 844.408 108.416 842.3 109.087 839.91C109.759 837.52 110.657 836.38 111.285 837.231C111.784 838.026 112.475 838.137 112.763 837.113C113.002 836.259 112.776 835.009 112.228 834.385C111.553 833.705 115.971 822.605 122.248 808.485C137.142 775.519 136.888 776.941 127.863 780.266L120.54 783.188L114.662 806.688Z" fill="#C9B7A0" fill-opacity="0.1"/>
<path d="M240.049 678.347C242.008 684.163 240.728 693.324 237.9 694.18C237.117 694.408 236.49 692.036 236.438 689.153C236.127 674.91 236.047 674.684 230.979 673.794C226.982 673.184 226.565 672.62 228.417 671.145C232.12 668.195 237.848 671.852 240.049 678.347Z" fill="#C9B7A0" fill-opacity="0.1"/>
<path d="M328.501 347.294C329.423 350.198 329.992 353.33 329.703 354.357C329.175 356.239 321 361.107 316.186 362.261C313.82 362.952 313.885 363.75 316.054 370.467L318.594 377.925L309.825 383.877L301.008 390.001L300.319 381.627C300.006 377.069 300.143 371.94 300.624 370.229C301.249 368.004 300.796 367.037 298.67 366.872C294.724 366.485 292.33 360.053 293.317 352.414C294.226 346.086 294.226 346.086 294.958 351.213C295.317 354.061 295.936 358.561 296.036 361.296C296.317 365.455 296.655 365.796 297.763 363.399C298.678 361.687 300.385 361.283 302.706 362.302C308.121 364.679 314.523 359.417 316.572 351.091C317.756 345.845 319.026 343.903 321.794 342.812C326.317 341.146 326.575 341.259 328.501 347.294Z" fill="#C9B7A0" fill-opacity="0.1"/>
<path d="M264.402 332.271C275.01 338.928 276.008 339.918 279.274 350.97L282.155 360.373L277.1 358.172C267.749 354.1 257.107 340.021 256.102 330.509C255.855 328.364 255.849 326.88 255.975 326.935C256.181 327.21 259.912 329.575 264.402 332.271Z" fill="#C9B7A0" fill-opacity="0.1"/>
<path d="M625.97 492.353C625.193 495.092 613.585 499.666 607.065 499.746C603.68 499.731 597.949 498.524 594.677 497.113C588.763 494.561 577.55 486.289 578.877 485.596C579.22 485.382 583.99 485.994 589.515 486.931C595.04 487.868 603.161 488.118 607.576 487.491C615.513 486.396 626.838 489.293 625.97 492.353Z" fill="#C9B7A0" fill-opacity="0.1"/>
<path d="M533.143 470.03C535.335 476.794 533.889 485.059 530.154 486.904C526.419 488.749 525.55 485.079 528.301 478.934C530.259 474.569 530.386 473.077 528.724 471.188C526.248 468.555 525.331 465.058 526.774 463.563C528.802 461.55 531.066 463.897 533.143 470.03Z" fill="#C9B7A0" fill-opacity="0.1"/>
<path d="M516.761 470.046C516.993 471.312 516.832 472.405 516.294 472.752C515.886 473.155 515.474 472.005 515.519 470.278C515.428 466.94 516.36 466.766 516.761 470.046Z" fill="#C9B7A0" fill-opacity="0.1"/>
<path d="M578.653 499.416C580.853 501.662 585.593 507.962 589.29 513.439C594.543 521.436 595.388 523.462 593.423 523.898C590.215 524.715 578.86 517.752 573.855 511.89C569.88 507.397 564.225 494.802 564.966 492.176C565.523 490.206 574.3 494.758 578.653 499.416Z" fill="#C9B7A0" fill-opacity="0.1"/>
<path d="M559.329 511.672C565.357 517.425 578.48 534.188 578.016 535.83C577.321 538.292 564.675 537.402 560.489 534.661C552.668 529.234 543.71 514.282 542.7 504.812C542.26 501.856 542.984 501.802 548.239 504.27C551.521 505.697 556.498 509.151 559.329 511.672Z" fill="#C9B7A0" fill-opacity="0.1"/>
<path d="M535.229 530.699C542.212 537 548.24 548.171 546.027 550.493C545.465 550.978 540.62 549.611 535.33 547.321C524.874 542.796 517.206 534.923 513.273 524.841C511.387 520.017 511.433 519.854 514.022 519.699C518.776 519.389 527.742 524.18 535.229 530.699Z" fill="#C9B7A0" fill-opacity="0.1"/>
<path d="M550.04 545.439C553.52 549.77 553.84 550.66 551.402 550.718C549.472 550.998 548.105 549.277 546.668 545.276C544.273 538.609 544.527 538.72 550.04 545.439Z" fill="#C9B7A0" fill-opacity="0.1"/>
<path d="M168.138 401.075C170.7 408.809 171.32 421.338 169.754 430.577C168.93 435.081 168.296 437.334 168.29 435.775C168.285 434.216 167.081 429.021 165.683 424.518C163.218 416.437 163.106 403.158 165.411 398.133C166.212 396.342 166.954 396.861 168.138 401.075Z" fill="#C9B7A0" fill-opacity="0.1"/>
<path d="M406.267 495.669C407.245 500.562 407.148 500.907 402.248 504.197C396.401 508.238 396.165 505.417 401.557 496.714L405.157 490.72L406.267 495.669Z" fill="#C9B7A0" fill-opacity="0.1"/>
<path d="M187.332 414.84C187.501 426.071 181.71 438.447 173.59 444.529C170.9 446.499 169.283 447.366 170.172 446.38C171.061 445.394 174.148 437.723 177.248 429.47C180.347 421.217 183.805 413.315 184.977 411.864C187.125 409.66 187.347 409.952 187.332 414.84Z" fill="#C9B7A0" fill-opacity="0.1"/>
<path d="M511.194 542.316C520.411 549.821 538.113 572.437 536.282 574.404C533.714 576.973 525.135 576.744 518.445 573.837C509.736 570.052 500.324 558.223 494.993 544.485C491.832 536.111 491.458 533.922 493.297 533.432C496.55 532.451 503.147 535.686 511.194 542.316Z" fill="#C9B7A0" fill-opacity="0.1"/>
<path d="M365.161 510.602C367.887 512.181 371.415 514.495 372.939 515.737L375.777 517.939L372.161 520.557C368.24 523.233 367.636 526.409 369.456 532.752C370.052 534.734 370.263 536.547 369.91 536.774C369.606 536.832 367.017 530.152 364.297 521.884C361.497 513.391 359.421 506.935 359.757 507.274C359.966 507.557 362.435 509.023 365.161 510.602Z" fill="#C9B7A0" fill-opacity="0.1"/>
<path d="M188.511 448.532C184.815 454.434 176.101 460.064 171.439 459.562C168.299 459.342 167.799 460.087 167.014 464.952L166.296 470.617L165.945 464.097C165.723 457.633 165.723 457.633 173.692 452.062C178.186 449.018 183.862 445.913 186.547 445.162L191.303 443.776L188.511 448.532Z" fill="#C9B7A0" fill-opacity="0.1"/>
<path d="M157.582 434.115C160.239 437.348 163.154 442.199 164.159 444.709C165.565 448.335 166.232 449.004 166.878 447.216C167.255 445.876 167.654 446.992 167.677 449.448C167.699 451.904 167.34 454.193 166.818 454.529C166.295 454.864 166.136 454.418 166.418 453.413C166.701 452.408 164.872 450.29 162.266 448.397C159.613 446.671 156.716 442.769 155.438 439.198C154.16 435.628 153.3 434.123 153.558 435.741C153.721 437.694 153.5 437.974 152.72 436.691C152.146 435.688 152.095 434.348 152.712 433.677C153.328 433.006 152.943 431.332 152.083 429.827C148.994 425.088 152.602 427.984 157.582 434.115Z" fill="#C9B7A0" fill-opacity="0.1"/>
<path d="M480.884 561.88C489.295 568.598 503.039 583.426 507.25 590.507L510.156 595.209L505.83 595.517C503.54 595.617 497.932 594.464 493.263 592.991C482.79 589.555 475.855 583.111 464.539 565.704C457.684 555.485 456.758 553.27 459.047 553.171C465.193 552.924 473.674 556.406 480.884 561.88Z" fill="#C9B7A0" fill-opacity="0.1"/>
<path d="M191.53 462.295C189.898 468.103 182.159 475.068 175.168 476.796C167.26 478.697 166.034 475.856 172.151 469.523C176.308 465.015 189.85 456.952 191.909 457.856C192.295 458.026 192.153 460.074 191.53 462.295Z" fill="#C9B7A0" fill-opacity="0.1"/>
<path d="M151.321 452.459C156.664 456.627 156.824 457.065 154.175 459.418C151.964 461.224 152.09 461.279 155.231 459.693C158.545 457.998 158.798 458.108 161.093 463.533L163.594 469.233L159.761 467.75C155.342 465.829 146.752 455.084 146.922 451.468C146.974 449.277 147.399 449.278 151.321 452.459Z" fill="#C9B7A0" fill-opacity="0.1"/>
<path d="M455.708 586.803C460.663 590.756 469.485 600.004 475.218 607.193L485.654 620.219L479.372 620.949C465.365 622.513 447.662 610.698 436.196 592.334C432.878 587.094 428.895 581.205 427.202 579.205C423.277 574.61 423.975 573.643 430.99 574.316C439.355 575.21 445.054 578.033 455.708 586.803Z" fill="#C9B7A0" fill-opacity="0.1"/>
<path d="M424.376 607.811C433.152 615.216 445.19 628.551 450.397 636.587L453.51 641.548L449.517 642.177C447.184 642.436 440.526 641.01 434.474 638.941C421.283 634.154 412.85 626.535 402.322 609.871C398.385 603.831 394.643 598.598 393.888 598.272C390.616 596.86 393.795 594.614 398.486 595.01C406.139 595.418 415.143 600.027 424.376 607.811Z" fill="#C9B7A0" fill-opacity="0.1"/>
<path d="M149.586 540.619C152.536 543.116 155.091 546.504 155.53 547.928C156.57 551.198 152.201 550.215 137.715 544.203C128.925 540.448 127.176 539.171 124.146 533.99C121.851 530.183 121.341 528.022 122.57 527.664C125.666 526.69 144.151 535.471 149.586 540.619Z" fill="#C9B7A0" fill-opacity="0.1"/>
<path d="M140.54 564.604C143.948 567.499 148.24 572.741 149.948 576.158L153.249 582.405L141.926 578.078C129.095 573.104 121.776 567.098 118.059 558.347C116.808 555.306 115.935 552.426 116.025 552.108C116.524 550.354 134.89 559.673 140.54 564.604Z" fill="#C9B7A0" fill-opacity="0.1"/>
<path d="M135.978 595.391C140.803 599.25 148.186 608.496 148.558 611.157C149.02 613.5 130.583 607.908 125.084 603.938C119.539 600.128 113.94 592.541 112.021 586.893L110.585 582.523L121.097 587.215C126.833 589.856 133.565 593.461 135.978 595.391Z" fill="#C9B7A0" fill-opacity="0.1"/>
<path d="M111.999 693.795C114.543 695.818 118.083 698.824 119.778 700.845L122.927 704.233L117.882 707.553C113.526 710.437 112.252 710.435 108.699 707.974C103.187 703.928 99.9826 699.231 97.2785 691.262L94.9277 684.547L101.189 687.449C104.548 689.091 109.409 691.936 111.999 693.795Z" fill="#C9B7A0" fill-opacity="0.1"/>
<path d="M94.3105 716.205C98.6258 720.174 98.6292 721.687 93.8838 724.33C90.662 726.131 90.4075 726.019 88.7138 721.876C87.787 719.581 86.8095 715.941 86.5989 714.149C86.1923 710.004 88.1484 710.672 94.3105 716.205Z" fill="#C9B7A0" fill-opacity="0.1"/>
</svg>
