<svg width="406" height="1026" viewBox="0 0 406 1026" fill="none" xmlns="http://www.w3.org/2000/svg">
<path d="M244.723 84.0257C245.768 90.1632 239.249 113.067 233.129 124.762C228.258 134.247 216.802 150.521 215.419 149.928C215.281 149.869 216.199 145.554 217.642 140.484C218.897 135.529 221.507 125.27 223.27 117.983C226.986 103.294 231.232 94.9141 239.006 86.6741C242.749 82.7867 244.341 82.0965 244.723 84.0257Z" fill="#C9B7A0" fill-opacity="0.1"/>
<path d="M205.805 119.894C206.985 135.745 205.467 151.944 202.121 158.716C199.864 163.667 201.666 165.991 204.213 161.551C205.158 160.241 207.611 157.677 209.696 155.909C211.91 154.198 210.099 157.044 205.755 162.229C201.459 167.242 197.725 172.311 197.486 173.164C197.246 174.017 199.623 174.294 202.721 173.546C207.778 172.508 210.187 173.182 221.774 179.227C229.086 183.012 236.511 187.422 238.457 189.234L241.801 192.236L235.091 193.506C220.112 195.939 207.291 190.693 198.553 178.616C195.625 174.647 195.239 174.478 192.882 176.701C191.503 178.012 190.157 179.721 189.741 180.688C189.372 181.485 186.68 184.903 183.778 188.037C180.828 191.342 178.761 194.076 179.146 194.245C179.532 194.414 183.467 194.8 188.011 195.07C196.057 195.728 226.49 208.705 225.819 211.093C225.628 211.776 223.8 213.657 221.538 215.539C209.783 225.519 192.688 219.547 176.907 200.161C175.604 198.631 172.493 201.482 163.757 212.021C157.522 219.825 152.232 226.319 152.088 226.831C151.945 227.343 155.075 226.992 158.993 226.412C167.533 224.795 184.207 228.665 196.741 234.934L205.596 239.397L197.395 242.888C188.136 247.064 173.604 247.393 165.506 243.837C162.421 242.483 157.486 238.975 154.398 236.086C149.494 231.442 148.723 231.103 147.023 233.04C145.548 234.693 144.858 234.581 143.923 232.254C143.23 230.608 143.228 229.074 144.014 228.844C145.411 228.499 165.177 205.936 165.608 204.401C165.704 204.06 164.643 203.21 163.229 202.59C160.015 201.179 160.351 199.985 164.473 196.619C167.087 194.509 166.782 194.567 163.22 196.453L158.728 199.08L154.237 191.934C149.071 184.108 144.168 169.69 144.19 162.416C144.133 156.45 147.838 142.744 149.716 142.226C151.947 141.481 166.605 183.373 167.02 192.179C167.203 196.668 167.658 200.701 168.044 200.87C168.43 201.04 171.508 197.791 174.954 193.746C178.353 189.872 182.457 185.541 183.965 184.286C185.601 183.088 187.3 181.15 187.764 180.013C188.228 178.875 191.098 175.343 194.08 172.436L199.692 166.85L197.476 155.719C194.887 142.316 195.27 129.643 198.624 117.7C202.746 103.027 204.465 103.59 205.805 119.894Z" fill="#C9B7A0" fill-opacity="0.1"/>
<path d="M264.094 139.34C263.007 143.205 251.868 154.368 245.381 158.132C235.673 163.695 226.464 164.945 216.594 161.943C209.617 159.831 209.282 159.495 212.408 158.033C214.185 157.302 217.041 156.288 218.724 155.893L221.788 155.159L218.11 158.077C212.64 162.287 234.497 149.59 241.14 144.762C244.248 142.349 249.118 139.763 251.753 139.03C256.895 137.508 264.567 137.66 264.094 139.34Z" fill="#C9B7A0" fill-opacity="0.1"/>
<path d="M182.548 136.013C187.115 156.105 187.437 182.321 183.044 183.711C180.624 184.406 175.77 166.913 175.003 154.902C174.58 146.934 175.189 142.14 177.406 135.324L180.389 126.313L182.548 136.013Z" fill="#C9B7A0" fill-opacity="0.1"/>
<path d="M-4.07683 74.3626C-2.6127 79.0751 -2.67618 79.8228 -5.10378 81.6678C-6.58649 82.7634 -6.99358 83.1668 -5.83579 82.7044C-4.62946 82.0694 -3.3895 81.8369 -2.7359 82.1232C-1.03654 82.8673 -0.618047 93.9075 -1.7682 104.261C-2.7279 112.371 -2.36537 127.264 -1.22992 131.057C-1.06558 131.517 3.89049 129.034 9.70929 125.572C21.6569 118.59 24.1704 118.528 20.1369 124.516C15.7785 131.138 8.62638 136.73 3.63293 137.258C-0.871265 137.612 -0.919816 137.784 -0.318406 143.476L0.234447 149.341L11.2334 141.555C17.4256 137.288 23.0166 134.114 23.6702 134.4C24.5853 134.801 23.9392 137.62 22.3333 141.763C19.3157 149.36 12.4736 154.894 5.538 155.541C3.10664 155.833 1.01888 156.47 0.873233 156.987C0.144987 159.577 0.0294299 172.516 0.683029 172.802C1.20591 173.031 3.0957 171.532 5.04898 169.285C6.95371 167.211 11.8089 163.521 15.7528 160.983C22.6958 156.656 22.9573 156.771 21.8406 160.741C19.9957 167.3 10.0688 179.626 4.8998 181.822C1.11645 183.267 0.156625 184.591 -0.0786 188.56C-0.732084 195.059 0.623665 195.459 4.46297 190.161C8.30228 184.863 27.2675 170.678 27.9248 172.517C29.1574 175.965 24.0782 188.281 19.6339 193.121C15.0103 198.075 2.9805 204.827 0.627542 203.797C-0.548937 203.282 -2.25558 213.004 -1.65794 217.143C-1.50853 218.178 0.381265 216.679 2.61091 213.971C7.34657 208.096 22.5807 196.738 26.9691 195.751C29.9383 195.113 30.0205 195.343 27.0663 202.192C22.4727 212.782 16.5307 219.292 6.34219 224.717L-2.94998 229.566L-4.49969 243.428C-6.22867 257.405 -5.55262 260.222 -2.41546 254.81C0.770248 249.226 14.1146 239.366 24.4189 234.572C34.4954 230.067 34.6261 230.124 33.3638 234.612C30.0139 246.522 18.8581 256.953 4.27747 261.812C-5.2799 264.994 -6.45262 266.032 -7.2742 270.519C-8.27129 276.674 -12.0883 277.716 -11.5319 271.562C-3.55185 196.732 -2.49139 183.044 -2.85052 149.347L-3.11231 128.875L-8.52414 125.148C-13.9845 121.594 -22.0146 108.384 -21.7981 103.438C-21.7608 98.6076 -9.4842 112.902 -5.8874 122.038C-4.72209 124.681 -3.70619 126.289 -3.51199 125.599C-2.83229 123.182 -4.79709 107.199 -6.94104 98.118C-8.88702 89.8986 -8.57362 71.0363 -6.5531 69.5947C-6.06384 69.4212 -5.01432 71.4318 -4.07683 74.3626Z" fill="#C9B7A0" fill-opacity="0.1"/>
<path d="M19.594 90.585C18.6437 103.103 11.3642 117.983 4.46561 121.275C1.96379 122.546 2.06278 122.197 4.35318 117.896C5.73977 115.165 8.98288 106.966 11.6565 99.6964C16.3846 86.2618 20.1862 82.0258 19.594 90.585Z" fill="#C9B7A0" fill-opacity="0.1"/>
<path d="M135.581 179.799C138.533 188.413 141.78 199.082 142.788 203.762L144.61 212.265L140.933 214.503L137.207 216.912L131.383 199.912C126.208 184.737 125.671 181.997 127.144 174.17C127.927 169.314 128.954 165.142 129.357 164.741C129.841 164.568 132.58 171.356 135.581 179.799Z" fill="#C9B7A0" fill-opacity="0.1"/>
<path d="M102.895 178.395C102.556 179.602 105.714 188.147 109.818 197.494C113.922 206.842 117.947 217.509 118.687 221.124L120.181 227.779L112.22 233.194L104.211 238.78L112.466 233.882L120.542 229.099L122.089 237.131C122.847 241.722 123.12 248.036 122.77 251.366C122.467 254.524 122.392 257.394 122.913 257.622C123.825 258.022 138.901 239.273 138.443 238.299C138.231 238.012 136.158 234.975 133.661 231.364C129.221 224.773 128.794 222.65 131.851 221.667C132.778 221.493 134.769 224.301 136.257 227.856L139.021 234.681L136.793 227.511C134.974 221.488 134.971 219.938 137.034 218.326C138.334 217.347 139.845 216.654 140.366 216.883C141.93 217.568 141.823 228.36 140.284 231.75C139.491 233.532 139.318 236.747 139.925 238.754C140.761 242.024 138.605 245.531 120.382 268.707C109.023 283.084 99.8723 295.332 100.036 295.791C100.2 296.25 101.745 295.96 103.305 295.095C109.009 291.982 118.916 291.098 127.575 292.57C136.886 294.328 167.503 307.746 169.397 310.899C171.046 313.363 159.879 318.728 149.779 320.301C143.695 321.119 140.244 320.381 128.127 315.071C120.18 311.588 110.211 306.445 105.763 303.527L97.6005 298.208L85.3995 314.539C71.8355 332.595 70.2151 335.756 75.968 332.471C82.2571 328.84 92.7002 327.61 102.856 328.964C113.272 330.432 148.383 345.045 151.092 348.942C152.398 351.063 151.229 352.099 143.979 355.503C129.838 362.08 120.661 361.929 103.854 354.563C95.9065 351.08 85.0259 345.537 79.4871 342.336L69.3699 336.16L58.096 352.316C51.9321 361.228 46.9858 368.932 47.1495 369.391C47.3132 369.849 48.8583 369.559 50.5972 368.579C55.8138 365.639 67.4296 364.923 78.5792 366.906C89.2077 368.661 116.24 379.734 122.907 385.172L126.394 387.862L119.796 391.551C103.707 400.371 84.0318 398.523 65.1972 386.397C59.9674 383.137 52.7833 379.021 49.1353 377.422L42.7997 374.452L36.0026 384.054C32.3043 389.402 28.0546 395.668 26.4978 398.083C24.0171 402.222 23.5778 402.223 22.3836 399.183C21.2378 395.971 22.0313 394.19 30.2065 382.288C35.1862 374.987 41.2532 366.419 43.4916 363.142C45.8603 359.922 51.9608 351.757 56.9738 344.857C72.2401 323.869 88.2546 302.822 105.699 280.853C114.835 269.179 122.038 259.174 121.841 258.314C121.465 257.568 120.177 256.423 118.874 255.852C110.275 252.084 95.8793 223.129 94.7073 207.518C94.0362 197.933 97.2755 183.288 101.123 178.973C102.389 177.593 103.186 177.361 102.895 178.395ZM165.135 310.966C164.892 311.828 165.302 312.975 166.083 313.317C166.735 313.603 167.237 312.856 167.089 311.823C166.989 310.617 166.531 309.643 166.14 309.471C165.88 309.357 165.425 309.932 165.135 310.966Z" fill="#C9B7A0" fill-opacity="0.1"/>
<path d="M131.035 204.439C134.672 214.679 135.224 218.379 133.809 219.295C132.218 220.325 131.202 219.303 129.538 214.923C127.26 209.121 124.498 192.158 125.608 191.3C126.09 191.128 128.497 196.986 131.035 204.439Z" fill="#C9B7A0" fill-opacity="0.1"/>
<path d="M82.6717 212.813C89.7917 227.903 98.1818 256.095 99.0933 267.883C99.46 273.834 99.184 282.591 98.3176 287.229L96.6966 295.589L94.5987 290.616C93.4925 287.815 89.869 281.014 86.6525 275.357C75.0855 254.842 70.8196 232.705 74.8492 212.663C75.9087 207.337 77.1158 203.042 77.5048 203.212C77.8937 203.383 80.1848 207.669 82.6717 212.813ZM79.3008 257.463C78.9145 258.838 80.4677 257.975 87.9565 252.575L96.0605 247.058L87.6641 252.06C83.1342 254.706 79.3974 257.119 79.3008 257.463Z" fill="#C9B7A0" fill-opacity="0.1"/>
<path d="M184.6 267.696L192.772 272.343L188.726 276.64C182.989 282.406 172.704 284.731 164.31 282.372L157.395 280.289L152.852 267.311C150.055 259.677 148.78 254.171 149.848 253.9C152.328 253.142 175.259 262.175 184.6 267.696Z" fill="#C9B7A0" fill-opacity="0.1"/>
<path d="M151.396 267.849L156.138 281.288L149.504 277.087C142.156 272.39 131.148 260.504 131.723 257.959C132.238 256.133 139.417 253.862 143.842 254.302C145.928 254.467 147.805 257.895 151.396 267.849Z" fill="#C9B7A0" fill-opacity="0.1"/>
<path d="M56.4176 247.302C60.6143 257.25 63.7405 266.343 63.4507 267.374C63.1127 268.577 61.7551 270.297 60.461 271.274C58.633 272.595 58.8924 272.709 61.3688 271.672C64.2012 270.405 64.7531 271.033 67.4419 280.127C71.3695 293.625 72.5848 312.11 70.4352 323.907L68.6057 333.528L64.5896 325.011C62.3947 320.38 58.6891 313.35 56.4789 309.292C50.9219 299.519 43.9674 278.13 43.0583 267.887C41.7368 253.409 44.8661 227.757 47.7192 229.009C48.2379 229.236 52.1726 237.525 56.4176 247.302Z" fill="#C9B7A0" fill-opacity="0.1"/>
<path d="M24.5984 265.546C22.662 269.87 22.9213 271.517 28.575 283.773C41.0263 310.894 47.0949 343.261 43.5429 362.59L41.6786 372.312L39.197 366.24C37.8114 362.949 33.9464 355.12 30.5172 348.823C22.467 333.791 13.9044 308.76 15.0369 303.7C16.4395 296.65 17.4429 280.227 16.4147 279.775C15.772 279.493 15.2427 279.836 15.051 280.518C14.8114 281.371 13.1602 283.138 11.252 284.791C7.83632 287.699 7.83632 287.699 4.58581 282.823C1.83421 278.74 0.853874 278.118 -1.98679 278.979L-5.48533 280.126L-1.22011 276.25C3.49385 271.803 19.0868 262.551 23.7094 261.515C26.4542 260.995 26.5349 261.222 24.5984 265.546Z" fill="#C9B7A0" fill-opacity="0.1"/>
<path d="M308.258 409.102C304.317 418.421 294.676 430.28 286.245 436.275C272.881 445.728 272.064 444.983 279.694 430.886C287.131 417.48 295.018 408.728 303.259 404.975C310.605 401.798 311.209 402.257 308.258 409.102Z" fill="#C9B7A0" fill-opacity="0.1"/>
<path d="M3.18016 287.671C4.21548 289.067 4.85483 290.856 4.66593 291.527C4.47703 292.199 0.0524158 294.222 -5.18229 296.078C-10.417 297.934 -14.7617 300.181 -14.7907 301.299C-14.7726 302.25 -16.1312 305.05 -17.824 307.514C-20.8464 311.66 -20.8464 311.66 -19.8402 307.574C-17.795 299.795 -18.863 298.007 -27.3308 295.619C-34.7814 293.676 -35.0357 293.565 -31.6101 292.048C-29.7066 291.373 -27.2654 289.802 -26.2047 288.569C-24.7007 286.776 -24.1122 287.222 -21.958 291.749C-18.863 298.007 -17.864 297.502 -17.2174 289.11C-16.9595 284.131 -16.3128 282.34 -14.6636 281.554C-12.84 280.655 -12.5675 281.717 -13.127 286.753C-14.1405 294.418 -12.8836 295.534 -10.0247 289.431C-8.93485 287.08 -6.78067 285.006 -5.36755 285.059C-4.00166 285.28 -1.85838 285.276 -0.652325 285.049C0.506503 284.991 2.31921 286.162 3.18016 287.671Z" fill="#C9B7A0" fill-opacity="0.1"/>
<path d="M269.682 430.518C267.803 442.35 261.899 458.743 257.327 464.215C253.96 468.489 253.816 469.002 255.856 468.938C260.853 468.639 257.336 470.355 240.908 476.375C231.53 479.929 221.703 484.053 218.75 485.824C215.972 487.482 212.809 488.97 211.765 489.087C209.114 489.265 167.596 510.543 149.311 521.117C140.946 525.691 134.35 530.658 134.577 531.908C134.675 533.101 134.37 533.159 133.79 532.138C132.582 530.265 95.4691 553.86 61.9074 577.672C42.053 591.776 37.1591 596.34 43.4875 594.899C49.2055 593.574 65.2854 602.167 75.2615 611.916C86.0899 622.231 100.272 640.155 99.6003 642.545C98.9289 644.935 85.0774 643.84 78.5177 640.961C67.5849 636.161 57.0921 624.651 45.4631 605.355C42.8862 601.155 39.9561 597.184 38.7985 596.676C36.9978 595.885 9.10169 615.472 6.74533 619.232C6.07177 620.087 7.31004 620.822 9.86497 620.985C16.5335 621.42 27.4359 627.357 37.1372 636.026C47.3857 645.32 64.142 665.908 63.3748 668.639C62.4637 671.883 51.8734 670.494 41.7602 665.862C29.8464 660.44 23.1688 653.865 11.9432 635.705C7.82057 629.293 3.81131 623.505 3.03958 623.166C2.26785 622.828 -4.84297 627.569 -12.7233 633.506L-26.9427 644.522L-19.7094 646.547C-7.91123 649.809 5.28033 660.97 21.217 681.39C30.9403 694.097 30.9578 695.063 20.8667 694.468C5.71362 693.377 -10.5649 680.861 -22.1786 660.997C-25.7388 654.639 -29.4102 649.192 -30.1819 648.853C-31.5967 648.232 -68.8314 676.376 -69.4068 678.425C-69.5507 678.937 -67.4295 679.101 -64.7307 678.752C-51.9431 677.462 -25.3512 688.753 -5.75904 703.874C4.35861 711.576 4.58539 712.826 -3.23625 714.954C-23.8105 720.304 -48.7935 710.487 -66.594 690.015C-73.4984 682.19 -75.3296 682.537 -89.804 694.976C-97.2177 701.31 -103.443 707.014 -103.587 707.526C-103.779 708.209 -102.044 708.204 -99.7789 707.856C-92.4542 706.469 -81.3166 708.482 -69.998 713.451L-59.0652 718.251L-54.6762 730.917C-52.3041 737.903 -49.9014 743.752 -49.387 743.978C-48.7439 744.26 -50.2461 738.806 -52.6662 731.991C-57.6199 717.735 -57.6199 717.735 -41.3589 729.284C-25.1458 741.004 -24.8559 741.515 -34.1075 743.59C-53.3172 748.197 -73.4431 741.663 -91.1736 725.058C-109.29 708.283 -105.724 707.931 -124.848 727.15C-161.796 764.049 -190.079 804.561 -213.032 853.358C-220.112 868.276 -220.785 869.131 -223.744 867.832C-226.445 866.647 -226.8 865.34 -225.909 859.595C-225.288 855.84 -225.262 851.633 -225.826 850.042C-226.391 848.452 -224.076 838.154 -218.61 818.692C-211.417 793.084 -210.297 790.124 -209.152 792.736C-208.169 794.894 -207.655 795.12 -207.271 793.754C-206.983 792.729 -207.372 791.025 -208.257 790.061C-209.351 788.813 -208.684 783.353 -205.971 771.121C-202.124 753.824 -202.124 753.824 -205.632 750.366C-207.402 748.439 -210.249 746.23 -211.793 745.552C-216.552 743.463 -227.334 731.442 -231.25 723.778C-234.956 716.398 -238.72 703.048 -237.178 702.19C-235.589 701.162 -225.018 711.364 -216.679 722.312C-211.351 729.062 -206.664 737.065 -204.695 742.915L-201.435 752.401L-197.748 736.185C-193.613 717.864 -193.953 715.989 -201.705 710.668C-210.053 704.894 -220.175 694.122 -223.092 688.047L-225.752 682.085L-220.985 679L-216.346 675.859L-208.425 686.24C-203.854 692.082 -199.005 700.539 -197.198 705.935L-193.938 715.42L-192.356 709.787C-190.231 701.706 -186.12 677.814 -186.556 676.28C-186.798 675.598 -190.609 673.734 -194.773 672.097C-199.065 670.405 -202.442 668.539 -202.203 667.685C-202.011 667.002 -199.523 664.834 -196.746 663.177L-191.85 660.148L-189.029 666.565C-187.385 669.971 -185.855 672.753 -185.502 672.524C-184.218 671.554 -179.345 641.859 -180.007 639.075C-180.572 637.485 -184.062 634.994 -189.336 632.679C-199.754 628.105 -206.898 621.133 -211.363 611.31C-215.99 601.033 -214.996 599.552 -206.457 604.643C-196.213 610.866 -184.724 622.43 -181.998 629.188C-180.788 632.596 -179.467 635.093 -179.243 634.809C-178.889 634.58 -177.501 628.094 -176.211 620.414C-173.567 604.316 -174.18 602.896 -186.656 597.419C-198.232 592.337 -206.715 581.901 -209.127 569.911C-210.049 565.479 -210.049 565.479 -202.41 570.175C-190.976 577.304 -180.42 588.075 -177.034 596.082C-175.405 600.057 -173.923 603.009 -173.779 602.497C-172.197 596.863 -162.182 501.539 -162.052 491.816C-162.183 490.225 -163.774 489.718 -168.418 489.789C-172.322 489.801 -177.53 488.281 -182.579 485.681C-189.461 481.893 -190.684 480.589 -193.024 474.001L-195.557 466.56L-180.829 473.793C-170.635 478.652 -165.602 481.82 -164.538 484.205C-162.538 488.918 -161.769 487.722 -161.139 478.793L-160.54 471.002L-168.802 468.525C-176.116 466.273 -177.902 464.914 -183.182 457.994C-187.287 452.548 -188.432 449.936 -187.034 449.59C-183.677 448.955 -167.048 459.707 -164.31 464.361C-162.941 466.688 -161.556 468.446 -161.155 468.047C-160.802 467.819 -160.246 463.268 -160.013 457.809C-159.495 449.791 -159.883 448.086 -161.971 448.32C-163.321 448.495 -167.563 448.167 -171.195 447.723C-177.029 446.888 -178.395 446.096 -181.696 441.387C-187.912 432.138 -186.355 430.712 -175.422 435.511C-170.149 437.826 -164.472 441.277 -162.783 442.978C-159.918 446.153 -159.918 446.153 -159.123 440.749C-158.155 432.161 -157.444 434.774 -157.862 445.522C-158.095 450.981 -158.296 456.838 -158.422 458.316C-158.483 460.591 -158.049 460.589 -156.124 458.366C-151.778 453.179 -138.378 441.994 -135.76 441.417C-133.27 440.784 -133.286 441.353 -136.137 447.389C-139.164 453.538 -140.832 455.875 -145.244 460.266C-146.848 461.863 -147.491 461.581 -148.911 457.889C-149.927 455.334 -150.94 454.313 -151.228 455.338C-151.516 456.362 -150.918 458.35 -150.049 459.883C-148.294 462.379 -148.389 462.721 -151.505 464.038C-153.303 464.782 -155.616 465.301 -156.516 464.906C-158.446 464.059 -158.988 466.505 -159.088 475.091L-159.223 481.744L-154.011 475.019C-148.527 467.838 -131.691 454.71 -129.376 455.726C-127.061 456.742 -133.593 472.284 -137.766 475.822L-141.537 478.961L-143.344 473.565C-144.345 470.441 -145.586 468.17 -145.987 468.57C-146.517 468.912 -146.111 471.583 -145.191 474.48L-143.512 479.82L-147.992 481.88C-150.496 483.082 -154.03 483.832 -155.846 483.61C-157.839 483.502 -159.251 484.416 -159.249 485.952C-159.199 487.316 -159.61 491.354 -160.007 494.824C-160.58 498.407 -160.576 501.478 -160.061 501.704C-159.675 501.873 -157.349 499.25 -155.008 496.059C-152.539 492.925 -145.831 487.048 -139.828 483.163C-129.539 476.366 -129.057 476.194 -129.87 480.631C-130.284 483.134 -131.82 487.062 -133.359 489.455L-136.117 493.614L-138.101 488.332C-140.698 481.631 -141.626 483.908 -139.35 491.236L-137.494 496.461L-145.344 501.261C-149.663 503.776 -154.897 506.464 -157 507.266L-160.902 508.813L-161.737 520.528C-162.257 527.012 -162.601 533.381 -162.599 534.916C-162.645 536.622 -161.008 535.423 -158.137 531.889C-155.667 528.754 -151.881 525.047 -149.633 523.732C-146.15 521.618 -145.413 520.024 -143.77 512.116L-141.919 502.956L-139.597 508.578C-137.243 514.598 -135.603 514.934 -126.916 511.268C-123.32 509.779 -123.239 510.006 -124.102 513.079C-125.397 517.689 -127.066 518.49 -128.63 515.311C-129.404 513.437 -129.918 513.211 -130.254 514.406C-130.542 515.43 -130.073 517.362 -129.155 518.724C-127.818 520.653 -128.026 521.904 -129.678 523.672C-131.426 525.781 -130.955 529.248 -127.111 542.825C-124.495 552.028 -122.297 560.664 -122.294 562.199C-122.244 563.563 -121.597 566.916 -120.677 569.813C-118.078 578.049 -116.775 600.674 -118.381 612.051C-119.192 618.023 -119.314 622.572 -118.703 622.457C-118.093 622.341 -115.769 618.183 -113.382 613.286C-111.043 608.56 -108.558 604.857 -107.915 605.139C-107.272 605.422 -106.503 604.225 -106.152 602.462C-104.572 595.293 -103.257 593.185 -102.161 595.968C-100.227 599.885 -98.4307 597.605 -99.7869 593.174C-100.465 590.959 -100.356 588.514 -99.5539 587.715C-97.3239 585.434 -94.4198 593.613 -96.375 596.973C-97.2404 598.511 -97.8767 602.834 -97.7261 606.928C-97.5862 614.66 -99.9905 618.59 -101.525 612.739C-102.43 609.273 -105.663 606.895 -106.335 609.285C-106.574 610.139 -105.541 613.661 -104.122 617.352L-101.701 624.168L-95.7635 619.487C-92.4413 616.918 -87.1594 614.06 -83.8829 613.197C-77.9404 611.587 -77.7639 611.472 -74.0367 600.26L-70.3095 589.048L-75.3257 586.846C-82.1426 583.853 -88.9223 584.328 -90.9735 588.03C-92.737 590.708 -92.9135 590.822 -94.4135 586.904C-95.2682 584.803 -95.6586 581.563 -95.1791 579.856C-94.6996 578.149 -97.5428 567.695 -101.496 556.563C-114.209 521.066 -116.072 499.921 -109.06 471.357L-104.78 454.059L-100.406 467.294C-91.0763 496.32 -86.0865 535.138 -88.8975 557.492C-89.6755 563.862 -89.7167 568.638 -88.9624 568.01C-85.8168 565.556 -74.7002 542.438 -70.3496 529.006L-65.4868 514.265L-72.2062 501.152C-75.7839 493.828 -79.427 485.709 -80.2665 483.039C-81.1059 480.369 -84.3761 474.523 -87.5155 470.268C-92.9571 462.893 -100.392 444.096 -99.3369 440.34C-98.9532 438.974 -90.0913 444.974 -88.223 448.096C-87.2724 449.855 -86.9368 448.66 -85.2043 435.805C-84.0603 427.103 -84.3548 423.521 -86.9035 416.649C-89.6136 409.323 -91.733 399.379 -90.5754 399.888C-90.3182 400.001 -86.3766 403.457 -81.7592 407.593C-69.3067 418.813 -60.2591 430.84 -55.7918 442.197L-51.9371 452.136L-50.2002 442.351C-48.91 434.671 -49.0934 430.18 -51.4046 420.919L-54.3787 408.875L-63.4978 402.762C-73.2601 396.367 -81.1325 385.815 -82.5586 377.518C-83.2237 373.199 -83.2237 373.199 -73.0604 379.195C-67.4642 382.419 -61.1596 386.721 -59.0841 388.591L-55.4477 392.105L-54.3167 385.506C-53.7435 381.922 -52.6756 376.063 -52.0218 372.706C-50.7774 366.732 -50.9867 366.449 -57.0821 362.43C-66.0726 356.374 -74.7517 343.55 -75.6961 335.082C-76.0712 331.273 -75.9426 331.33 -68.8989 335.573C-58.0597 342.249 -48.2777 351.146 -43.5272 358.409C-41.1923 361.927 -39.0187 364.991 -38.7614 365.104C-38.3756 365.273 -37.9135 362.599 -37.517 359.13C-36.8829 353.272 -36.6584 352.987 -34.8707 355.881C-33.2116 358.719 -33.0807 360.31 -34.3359 369.923C-34.8131 373.165 -34.5558 373.278 -33.0649 371.056C-30.9003 367.979 7.41579 343.187 8.95924 343.864C10.8886 344.711 8.21404 350.633 2.69689 357.415L-2.94889 364.142L-1.22209 369.311C-0.302008 372.208 1.11508 374.364 1.77341 374.078C2.56038 373.848 2.78715 375.098 2.25969 376.976C1.7802 378.683 1.95056 385.278 2.65066 391.53C3.36825 398.749 3.02638 406.653 1.81464 413.025L-0.194758 423.265L-2.71078 416.791C-5.51677 409.806 -6.94683 409.754 -8.86486 416.582C-9.58412 419.143 -13.7519 425.751 -18.0658 431.337C-22.3317 436.751 -25.9545 442.448 -25.9043 443.812C-26.2044 458.255 -26.3178 457.63 -22.7057 455.572C-20.9879 454.6 -15.1503 447.191 -10.0365 439.272C-4.92272 431.353 1.98728 421.155 5.3224 416.482C10.7262 409.074 11.4804 408.447 12.6577 411.457C13.7065 414.41 13.3708 415.605 9.71527 420.904C7.63138 424.208 5.99653 426.942 6.25377 427.055C6.51101 427.168 9.83543 426.134 13.6895 424.758C23.0196 421.375 31.9052 421.632 46.7249 425.454C58.6996 428.601 83.589 440.295 84.5897 443.419C85.3964 445.691 72.391 451.871 63.765 453.262C50.1272 455.521 37.6052 451.75 20.4766 440.203C9.78127 433.014 5.24681 430.64 3.83425 431.554C0.832517 433.496 -7.14989 446.484 -8.73226 452.118C-10.1556 456.671 -13.0241 461.74 -18.9401 470.457C-20.8802 473.249 -20.7515 473.306 -16.1911 471.472C-8.2104 468.264 5.25532 469.19 21.2653 473.917L36.3749 478.249L40.8924 490.971L45.41 503.694L41.3968 506.151L37.3356 508.778L39.6265 504.223C41.645 500.123 41.6123 499.725 39.09 499.96C22.1735 501.547 21.3539 501.379 7.92932 495.677C0.469276 492.402 -10.3197 487.09 -16.1251 483.583L-26.6264 477.247L-38.3907 497.012C-44.7534 507.834 -50.1223 517.175 -50.3141 517.858C-50.5538 518.712 -48.1929 518.022 -45.0778 516.705C-36.4715 512.813 -24.0827 513.457 -7.38165 518.296C5.83134 522.179 8.08109 522.4 9.7966 519.893C11.656 516.874 11.656 516.874 12.1118 520.909C12.5349 524.547 10.8019 526.087 -1.91129 534.313C-18.6856 545.167 -18.5091 545.053 -39.4986 530.277C-46.6077 525.238 -52.1232 522.242 -53.054 522.984C-56.1037 525.097 -84.4212 574.99 -83.6472 576.864C-83.5665 577.091 -79.8737 575.261 -75.4267 572.802C-67.93 568.231 -55.6112 565.009 -42.6142 564.003C-39.6582 563.767 -36.591 562.62 -35.9981 561.538C-35.4052 560.456 -34.0429 558.177 -32.8723 556.582C-30.5639 552.993 -29.923 551.74 -29.0424 549.634C-28.7547 548.609 -27.7912 548.265 -27.0195 548.604C-25.9905 549.056 -26.3589 549.853 -27.8674 551.108C-29.9056 552.707 -29.8249 552.934 -28.0896 552.928C-26.7402 552.754 -25.8376 554.684 -25.7045 557.811C-25.6041 560.54 -24.7167 563.039 -23.945 563.378C-22.4015 564.055 -5.52846 565.71 -4.69355 565.309C-4.46902 565.024 -3.83268 560.701 -3.21384 555.411L-2.18319 546.084L-7.74437 544.793L-13.4342 543.446L-0.143326 534.706L13.0189 525.91L19.886 530.267C23.6008 532.473 26.8338 534.851 27.1238 535.362C27.3658 536.044 24.6213 538.099 21.0572 539.986L14.7158 543.53L14.3723 561.214C13.9915 575.43 13.1656 581.971 10.0488 593.067C7.97172 600.977 6.4548 607.407 6.88861 607.405C8.22277 607.799 35.0245 586.965 36.0817 584.744C36.7225 583.491 36.2622 576.385 34.9821 569.111C31.8224 551.04 31.6363 533.699 34.4936 520.955C36.4398 511.453 37.0806 510.201 41.0938 507.744C45.4122 505.229 45.5409 505.285 47.8933 509.77C52.5502 518.91 50.3766 559.569 44.5328 573.688C42.9962 577.616 41.9565 580.803 42.2137 580.916C43.4999 581.48 72.5841 561.264 73.5933 559.214C74.2342 557.962 73.9374 552.845 72.9823 548.015C70.4398 534.434 69.4537 519.427 70.336 507.541C71.6453 491.048 73.2299 486.95 80.2449 482.55C83.5518 480.55 86.4096 479.12 86.6517 479.802C87.6524 482.926 88.2222 498.901 87.8087 512.719C87.4889 524.66 86.3753 532.225 83.6421 541.956C81.7088 549.353 80.0306 555.329 80.0306 555.329C80.1592 555.385 85.7615 551.9 92.6478 547.444L105.089 539.673L102.672 524.613C99.12 501.767 99.8517 485.788 105.035 470.421C107.258 463.534 110.813 455.507 112.753 452.715L116.361 447.587L117.722 466.402C119.378 488.799 118.093 510.864 114.337 524.748C112.803 530.211 112.119 534.705 112.681 534.76C113.292 534.645 118.927 531.557 125.235 527.615L136.793 520.416L134.916 511.154C131.872 495.243 131.657 480.574 134.419 468.171C137.117 456.507 143.074 443.014 145.261 443.974C146.804 444.651 148.815 468.355 148.465 481.433C148.184 487.063 147.219 497.186 146.297 504.069L144.403 516.469L154.71 510.639L164.84 504.922L162.191 495.321C155.876 473.564 158.733 449.505 168.647 438.899L173.026 434.11L174.534 453.948C175.241 464.806 175.326 479.418 174.742 486.641C174.078 493.636 173.477 499.892 173.686 500.176C173.719 500.574 176.433 499.656 179.724 498.224L185.569 495.421L184.291 489.682C181.264 474.738 186.286 447.601 193.379 441.894L196.797 438.984L196.642 443.135C196.582 445.409 195.847 448.539 194.982 450.076C193.892 451.899 193.864 454.572 195.008 457.184C196.96 462.067 196.5 477.591 194.151 485.956L192.52 491.761L200.148 488.781C204.355 487.176 208.563 485.571 209.397 485.171C210.361 484.826 210.503 482.779 209.663 480.109C208.42 476.304 208.579 475.223 210.618 473.625C211.902 472.654 213.857 469.294 214.977 466.334C216.658 461.894 216.59 459.563 214.283 453.372C212.461 448.545 210.496 445.765 209.195 445.769C207.54 446.001 207.137 444.865 207.808 442.475C208.911 438.549 215.806 428.919 217.092 429.484C218.716 430.388 220.213 465.181 218.875 473.031C218.143 477.696 217.779 481.563 218.036 481.676C218.294 481.789 221.313 480.813 224.605 479.382C227.896 477.95 230.835 476.747 231.14 476.689C231.445 476.632 231.728 472.537 231.898 467.817C232.218 455.876 236.614 440.739 241.634 434.697L245.58 429.909L244.663 439.861C244.253 445.435 242.292 455.505 240.422 462.163C238.632 469.048 237.178 474.738 237.307 474.794C237.436 474.851 240.841 474.045 244.776 472.895C249.674 471.402 251.889 469.69 251.854 467.757C251.611 455.76 259.933 433.333 267.425 425.692L271.083 421.928L269.682 430.518ZM-29.736 373.093C-34.7629 374.53 -35.0353 374.986 -36.2449 382.892C-37.8052 392.563 -37.9446 396.145 -36.5297 396.767C-36.0152 396.992 -31.8582 394.023 -27.4134 390.03L-19.3261 382.841L-21.1335 377.445C-23.2158 370.97 -23.0871 371.026 -29.736 373.093ZM-48.6387 367.863C-49.1814 370.309 -41.4658 383.477 -40.7945 381.087C-38.8613 373.689 -39.6855 370.451 -43.93 368.588C-46.3738 367.515 -48.4469 367.18 -48.6387 367.863ZM-28.9191 404.135C-31.184 404.483 -33.1111 405.171 -33.2549 405.683C-33.8129 408.698 -28.9574 421.761 -27.6734 420.79C-26.7426 420.048 -22.1365 416.509 -17.258 412.514L-8.52753 405.608L-10.59 401.634C-12.6197 398.058 -13.1821 398.003 -18.8499 400.693C-22.1896 402.295 -26.6541 403.787 -28.9191 404.135ZM111.624 460.849C109.281 462.505 107.725 463.931 108.111 464.1C108.368 464.213 110.567 463.07 112.911 461.414C115.254 459.757 116.81 458.331 116.425 458.162C116.167 458.049 113.968 459.193 111.624 460.849ZM19.9988 432.13C21.5315 436.447 23.2081 440.251 23.9798 440.59C24.6229 440.872 24.1039 437.576 22.5712 433.26C21.0385 428.943 19.3619 425.139 18.5901 424.8C17.947 424.518 18.466 427.814 19.9988 432.13ZM-43.6642 450.973C-46.5373 452.972 -47.3372 455.306 -50.1139 468.278C-53.3373 483.355 -53.058 487.505 -49.3568 480.5C-48.3476 478.45 -44.2255 473.548 -40.2625 469.726L-33.0428 462.54L-35.9926 456.067C-39.5551 448.175 -39.6837 448.118 -43.6642 450.973ZM-66.2355 453.146C-64.4105 459.508 -62.2279 468.713 -61.4015 473.486C-59.5545 483.885 -57.8649 485.586 -56.9606 477.737C-56.5313 474.665 -55.4308 469.204 -54.4717 465.789C-53.5127 462.375 -52.9723 458.393 -53.2318 456.745C-53.6047 454.472 -63.0815 445.517 -68.6776 442.294C-69.2728 441.841 -68.2371 446.898 -66.2355 453.146ZM-48.8135 489.368C-53.9668 492.283 -55.0894 493.708 -56.687 499.911C-58.2846 506.113 -59.9843 519.366 -58.9751 517.316C-58.7026 516.86 -54.439 509.911 -49.5344 501.708C-44.5493 493.733 -41.0246 486.843 -41.5391 486.617C-42.1822 486.334 -45.4259 487.595 -48.8135 489.368ZM67.9977 567.305C68.1438 568.328 68.9331 569.634 69.5762 569.916C70.3479 570.255 70.7163 569.458 70.5702 568.435C70.472 567.241 69.6348 566.106 68.9917 565.824C68.22 565.485 67.8996 566.112 67.9977 567.305ZM-11.6075 583.752C-15.6207 586.209 -20.1004 588.27 -21.6743 588.729C-24.1638 589.362 -24.4515 590.386 -25.7219 600.568L-26.9749 611.716L-22.1025 614.43L-17.1015 617.201L-24.1621 623.306C-27.9812 626.615 -32.1513 631.688 -33.5289 634.536C-36.2513 640.628 -37.1342 641.199 -15.4356 624.644L1.2558 612.028L0.298473 605.663C-2.15268 588.67 -3.53086 580.202 -3.9974 579.806C-4.25464 579.693 -7.77084 581.409 -11.6075 583.752ZM-155.089 539.555C-158.766 540.818 -162.091 541.851 -162.444 542.08C-163.456 542.594 -166.04 566.198 -165.011 566.65C-164.496 566.876 -163.374 565.451 -162.236 563.457C-161.227 561.407 -157.425 557.132 -153.606 553.822C-147.877 548.858 -146.835 547.206 -146.986 543.113C-146.958 540.44 -147.283 537.997 -147.668 537.827C-148.054 537.658 -151.331 538.521 -155.089 539.555ZM-50.0116 592.397C-55.3787 591.959 -55.5073 591.902 -56.6209 599.468C-57.2093 603.62 -57.4925 607.715 -57.1698 608.624C-56.5724 610.612 -44.055 611.313 -43.4796 609.264C-42.7603 606.703 -43.1817 593.286 -43.9534 592.948C-44.3393 592.778 -47.0229 592.559 -50.0116 592.397ZM-166.251 575.694C-167.21 579.108 -169.402 596.172 -169.572 600.892C-169.617 602.598 -167.852 601.455 -165.062 597.694C-160.571 591.995 -154.696 588.054 -144.869 583.93L-140.132 581.983L-142.459 573.29L-144.785 564.598L-155.127 568.496C-161.486 571.074 -165.723 573.816 -166.251 575.694ZM-47.1514 636.226C-50.3472 637.316 -55.1017 638.297 -57.6239 638.532C-61.9293 638.943 -62.507 639.457 -66.2996 649.873C-68.4596 656.02 -71.2933 663.022 -72.6229 665.699C-74.3689 669.343 -71.1099 667.514 -57.0671 656.611C-43.9551 646.451 -39.3665 641.945 -39.1617 639.158C-38.8153 634.324 -39.8922 634.043 -47.1514 636.226ZM-99.8331 627.289C-100.84 630.874 -99.0089 630.527 -90.3721 625.498C-84.3359 622.011 -82.507 620.129 -83.2331 618.084C-83.8784 616.267 -86.0148 616.671 -91.6651 620.328C-95.8549 622.899 -99.4974 626.094 -99.8331 627.289ZM-159.862 604.388C-168.102 605.948 -170.783 607.264 -170.892 609.709C-170.938 611.415 -171.716 617.785 -172.607 623.531C-173.418 629.503 -173.86 634.678 -173.699 635.133C-173.585 635.758 -171.58 633.762 -169.463 630.856C-164.7 624.7 -151.44 617.098 -140.92 614.621C-134.463 613.237 -133.466 613.291 -134.138 615.681C-136.919 625.583 -152.263 636.489 -165.757 638.236C-172.938 639.11 -174.126 639.74 -175.325 644.008C-176.092 646.739 -177.775 649.644 -179.011 650.444C-180.776 651.586 -180.696 651.813 -178.655 651.75C-176.438 651.573 -176.292 652.596 -177.731 657.717C-178.69 661.132 -178.942 664.089 -178.171 664.428C-177.528 664.71 -176.597 663.968 -176.213 662.603C-175.158 658.847 -160.359 648.852 -149.664 644.725C-138.263 640.142 -137.746 641.903 -146.967 654.156C-152.996 662.248 -159.482 666.304 -171.801 669.526L-180.008 671.484L-181.73 680.7C-182.734 685.82 -183.961 692.761 -184.358 696.23L-185.136 702.601L-177.966 694.05C-174.021 689.262 -165.58 681.845 -159.257 677.334L-147.588 669.225L-150.82 678.161C-155.589 691.025 -162.663 699.234 -176.211 707.861L-188.346 715.574L-191.249 730.025L-194.072 744.702L-188.33 737.635C-185.187 733.645 -179.138 728.055 -174.933 724.915C-167.582 719.32 -166.86 718.295 -151.129 686.463C-142.19 668.526 -131.793 647.969 -128.091 640.964C-120.096 625.872 -120.094 627.408 -129.974 606.002L-135.841 593.455L-142.423 597.853C-146.131 600.252 -153.935 603.346 -159.862 604.388ZM-88.1438 632.996C-90.2147 634.196 -92.5756 634.886 -93.6046 634.434C-96.6915 633.079 -97.2996 634.73 -98.0403 644.568C-99.661 667.828 -104.55 686.776 -112.323 700.048C-113.509 702.212 -112.898 702.096 -109.705 699.471C-78.2512 673.392 -80.3046 675.558 -79.5617 667.255C-79.2001 661.852 -78.5288 659.462 -76.9396 658.434C-73.2316 656.035 -72.5191 648.869 -75.1333 641.201C-78.0702 632.624 -82.5894 629.681 -88.1438 632.996ZM-135.149 671.234C-144.633 690.082 -153.203 707.223 -154.389 709.387C-156.135 713.031 -156.055 713.258 -153.197 711.828C-150.339 710.398 -150.258 710.625 -153.22 717.571C-154.934 721.613 -159.053 728.05 -162.502 732.098C-167.378 737.628 -171.624 745.544 -180.801 765.87C-187.351 780.445 -192.683 793.255 -192.713 794.392C-192.744 795.529 -188.975 790.855 -184.454 784.019C-170.858 763.906 -153.376 742.816 -134.028 723.312C-124 713.331 -115.547 703.81 -115.163 702.444C-114.78 701.079 -115.406 690.448 -116.387 678.511C-117.417 666.745 -117.952 652.703 -117.333 647.413C-116.891 642.238 -116.769 637.689 -117.155 637.519C-117.54 637.35 -125.712 652.556 -135.149 671.234ZM-201.338 774.688C-204.597 787.832 -208.047 801.659 -209.198 805.757C-210.444 810.195 -210.649 812.982 -209.686 812.638C-208.899 812.408 -207.584 810.3 -206.913 807.91C-206.242 805.52 -205.343 804.38 -204.716 805.231C-204.216 806.026 -203.525 806.137 -203.238 805.113C-202.998 804.259 -203.225 803.009 -203.772 802.385C-204.448 801.705 -200.029 790.605 -193.752 776.485C-178.858 743.519 -179.113 744.941 -188.138 748.266L-195.46 751.188L-201.338 774.688Z" fill="#C9B7A0" fill-opacity="0.1"/>
<path d="M12.5009 315.294C13.4233 318.198 13.9917 321.33 13.7034 322.357C13.1747 324.239 5.00026 329.107 0.186333 330.261C-2.18019 330.952 -2.11457 331.75 0.0537461 338.467L2.59361 345.925L-6.17513 351.877L-14.9919 358.001L-15.681 349.627C-15.9939 345.069 -15.8567 339.94 -15.3761 338.229C-14.7513 336.004 -15.2037 335.037 -17.3299 334.872C-21.2765 334.485 -23.6698 328.053 -22.6828 320.414C-21.7743 314.086 -21.7743 314.086 -21.0418 319.213C-20.6832 322.061 -20.0644 326.561 -19.9636 329.296C-19.6835 333.455 -19.3448 333.796 -18.2371 331.399C-17.3216 329.687 -15.615 329.283 -13.2942 330.302C-7.87908 332.679 -1.47686 327.417 0.572148 319.091C1.75608 313.845 3.02552 311.903 5.79409 310.812C10.3173 309.146 10.5752 309.259 12.5009 315.294Z" fill="#C9B7A0" fill-opacity="0.1"/>
<path d="M309.969 460.353C309.193 463.092 297.585 467.666 291.065 467.746C287.68 467.731 281.949 466.524 278.677 465.113C272.763 462.561 261.55 454.289 262.877 453.596C263.22 453.382 267.99 453.994 273.515 454.931C279.04 455.868 287.161 456.118 291.575 455.491C299.513 454.396 310.838 457.293 309.969 460.353Z" fill="#C9B7A0" fill-opacity="0.1"/>
<path d="M217.143 438.03C219.335 444.794 217.889 453.059 214.154 454.904C210.419 456.749 209.55 453.079 212.301 446.934C214.259 442.569 214.386 441.077 212.724 439.188C210.248 436.555 209.331 433.058 210.774 431.563C212.802 429.55 215.066 431.897 217.143 438.03Z" fill="#C9B7A0" fill-opacity="0.1"/>
<path d="M200.761 438.046C200.993 439.312 200.832 440.405 200.294 440.752C199.886 441.155 199.474 440.005 199.519 438.278C199.428 434.94 200.36 434.766 200.761 438.046Z" fill="#C9B7A0" fill-opacity="0.1"/>
<path d="M262.653 467.416C264.853 469.662 269.593 475.962 273.29 481.439C278.543 489.436 279.388 491.462 277.422 491.898C274.215 492.715 262.86 485.752 257.854 479.89C253.879 475.397 248.225 462.802 248.966 460.176C249.523 458.206 258.299 462.758 262.653 467.416Z" fill="#C9B7A0" fill-opacity="0.1"/>
<path d="M243.329 479.672C249.357 485.425 262.48 502.188 262.016 503.83C261.321 506.292 248.675 505.402 244.489 502.661C236.668 497.234 227.71 482.282 226.7 472.812C226.259 469.856 226.983 469.802 232.239 472.27C235.521 473.697 240.498 477.151 243.329 479.672Z" fill="#C9B7A0" fill-opacity="0.1"/>
<path d="M219.229 498.699C226.211 505 232.239 516.171 230.027 518.493C229.465 518.978 224.62 517.611 219.33 515.321C208.874 510.796 201.205 502.923 197.273 492.841C195.387 488.017 195.433 487.854 198.022 487.699C202.776 487.389 211.742 492.18 219.229 498.699Z" fill="#C9B7A0" fill-opacity="0.1"/>
<path d="M234.04 513.439C237.52 517.77 237.84 518.66 235.402 518.718C233.472 518.998 232.105 517.277 230.668 513.276C228.273 506.609 228.527 506.72 234.04 513.439Z" fill="#C9B7A0" fill-opacity="0.1"/>
<path d="M90.2668 463.669C91.2453 468.562 91.148 468.907 86.2482 472.197C80.4015 476.238 80.1648 473.417 85.5574 464.714L89.1573 458.72L90.2668 463.669Z" fill="#C9B7A0" fill-opacity="0.1"/>
<path d="M195.194 510.316C204.411 517.821 222.113 540.437 220.282 542.404C217.714 544.973 209.135 544.744 202.445 541.837C193.736 538.052 184.323 526.223 178.993 512.485C175.832 504.111 175.458 501.922 177.297 501.432C180.55 500.451 187.147 503.686 195.194 510.316Z" fill="#C9B7A0" fill-opacity="0.1"/>
<path d="M49.1611 478.602C51.8869 480.181 55.4148 482.495 56.9385 483.737L59.7774 485.939L56.1608 488.557C52.24 491.233 51.636 494.409 53.4558 500.752C54.0515 502.734 54.2625 504.547 53.9104 504.774C53.6061 504.832 51.0169 498.152 48.297 489.884C45.4968 481.391 43.4205 474.935 43.7574 475.274C43.9661 475.557 46.4354 477.023 49.1611 478.602Z" fill="#C9B7A0" fill-opacity="0.1"/>
<path d="M164.884 529.88C173.295 536.598 187.039 551.426 191.25 558.507L194.156 563.209L189.829 563.517C187.54 563.617 181.932 562.464 177.262 560.991C166.79 557.555 159.855 551.111 148.539 533.704C141.684 523.485 140.758 521.27 143.047 521.171C149.193 520.924 157.674 524.406 164.884 529.88Z" fill="#C9B7A0" fill-opacity="0.1"/>
<path d="M139.707 554.803C144.662 558.756 153.485 568.004 159.218 575.193L169.654 588.219L163.372 588.949C149.364 590.513 131.662 578.698 120.196 560.334C116.877 555.094 112.895 549.205 111.202 547.205C107.277 542.61 107.975 541.643 114.99 542.316C123.355 543.21 129.054 546.033 139.707 554.803Z" fill="#C9B7A0" fill-opacity="0.1"/>
<path d="M108.376 575.811C117.152 583.216 129.19 596.551 134.397 604.587L137.509 609.548L133.517 610.177C131.184 610.436 124.526 609.01 118.474 606.941C105.283 602.154 96.8503 594.535 86.3217 577.871C82.3849 571.831 78.6429 566.598 77.8878 566.272C74.6158 564.86 77.7953 562.614 82.4855 563.01C90.1385 563.418 99.1424 568.027 108.376 575.811Z" fill="#C9B7A0" fill-opacity="0.1"/>
</svg>
